<svg width="28" height="26" viewBox="0 0 28 26" fill="none" xmlns="http://www.w3.org/2000/svg">
<path d="M11.5265 1.45303L0.362727 21.4672C-0.689874 23.3549 0.674211 25.679 2.8358 25.679H25.162C27.3236 25.679 28.689 23.3549 27.635 21.4672L16.474 1.45303C15.3932 -0.484344 12.6073 -0.484344 11.5265 1.45303Z" fill="#FFCD00"/>
<path d="M14.1314 8.1499H14.13C13.4812 8.1499 12.9552 8.67587 12.9552 9.32468V15.3785C12.9552 16.0273 13.4812 16.5533 14.13 16.5533H14.1314C14.7802 16.5533 15.3061 16.0273 15.3061 15.3785V9.32468C15.3061 8.67587 14.7802 8.1499 14.1314 8.1499Z" fill="#303D4C"/>
<path d="M14.13 21.6402C14.9864 21.6402 15.6807 20.946 15.6807 20.0895C15.6807 19.2331 14.9864 18.5388 14.13 18.5388C13.2736 18.5388 12.5793 19.2331 12.5793 20.0895C12.5793 20.946 13.2736 21.6402 14.13 21.6402Z" fill="#303D4C"/>
</svg>
