<svg width="24" height="24" viewBox="0 0 24 24" fill="none" xmlns="http://www.w3.org/2000/svg">
<path d="M3.48481 2.00122H22.5939C23.2859 2.00122 23.8481 2.56333 23.8481 3.25536V7.41286C23.8481 8.10489 23.2859 8.667 22.5939 8.667H3.48481C1.64469 8.667 0.151917 7.17423 0.151917 5.33411C0.151917 3.494 1.64469 2.00122 3.48481 2.00122Z" fill="#23B169"/>
<path d="M13.7009 2.00122H22.5541C23.2674 2.00122 23.848 2.57924 23.848 3.29248V7.37309C23.848 8.08633 23.27 8.66435 22.5568 8.66435H13.7035C12.3645 8.66435 11.2748 7.57725 11.2748 6.23561V4.42466C11.2721 3.08832 12.3619 2.00122 13.7009 2.00122Z" fill="#03905A"/>
<path d="M14.6979 3.43286H23.8481V7.46309H14.6979C13.5842 7.46309 12.6827 6.55894 12.6827 5.44797C12.6827 4.33436 13.5869 3.43286 14.6979 3.43286Z" fill="#E5E8EB"/>
<path d="M3.48481 8.66699H22.5939C23.2859 8.66699 23.8481 9.2291 23.8481 9.92114V14.0786C23.8481 14.7707 23.2859 15.3328 22.5939 15.3328H3.48481C1.64469 15.3328 0.151917 13.84 0.151917 11.9999C0.151917 10.1624 1.64469 8.66699 3.48481 8.66699Z" fill="#3182F6"/>
<path d="M13.7009 8.66692H22.5541C23.2674 8.66692 23.8454 9.24494 23.8454 9.95819V14.0388C23.8454 14.752 23.2674 15.3301 22.5541 15.3301H13.7009C12.3619 15.3301 11.2722 14.243 11.2722 12.9013V11.0904C11.2722 9.75137 12.3593 8.66162 13.7009 8.66162V8.66692Z" fill="#1E6EF4"/>
<path d="M14.6979 10.0986H23.8481V14.1289H14.6979C13.5842 14.1289 12.6827 13.2247 12.6827 12.1137C12.6827 11.0001 13.5869 10.0986 14.6979 10.0986Z" fill="#E5E8EB"/>
<path d="M3.48481 15.3328H22.5939C23.2859 15.3328 23.8481 15.8949 23.8481 16.5869V20.7444C23.8481 21.4364 23.2859 21.9985 22.5939 21.9985H3.48481C1.64469 22.0012 0.151917 20.5058 0.151917 18.6683C0.151917 16.8282 1.64469 15.3328 3.48481 15.3328Z" fill="#FFC33A"/>
<path d="M13.7009 15.3327H22.5541C23.2674 15.3327 23.8454 15.9107 23.8454 16.624V20.7046C23.8454 21.4178 23.2674 21.9958 22.5541 21.9958H13.7009C12.3619 21.9958 11.2722 20.9087 11.2722 19.5671V17.7561C11.2722 16.4171 12.3593 15.3274 13.7009 15.3274V15.3327Z" fill="#FFA300"/>
<path d="M14.6979 16.7671H23.8481V20.7973H14.6979C13.5842 20.7973 12.6827 19.8932 12.6827 18.7822C12.6827 17.6686 13.5869 16.7671 14.6979 16.7671Z" fill="#E5E8EB"/>
</svg>
