<svg width="256" height="305" viewBox="0 0 256 305" fill="none" xmlns="http://www.w3.org/2000/svg">
<path d="M83.5528 294.942C83.5528 294.942 73.5373 303.291 85.6108 304.086C94.6616 304.683 102.601 304.385 106.004 304.198C107.121 304.139 108.162 303.607 108.875 302.748L112.237 298.678L83.5528 294.942Z" fill="#FCB49A"/>
<path d="M163.384 294.954C163.384 294.954 173.4 303.303 161.326 304.098C152.275 304.694 144.336 304.396 140.933 304.209C139.816 304.151 138.775 303.618 138.062 302.759L134.7 298.69L163.384 294.954Z" fill="#FCB49A"/>
<path d="M72.9351 291.621C59.8794 286.254 48.9226 275.841 43.0056 262.984C39.4684 255.248 38.0125 246.736 37.5682 238.234C36.4514 207.41 45.5022 176.902 57.6284 148.709C64.7731 132.666 74.4144 115.236 89.8907 106.384C115.002 91.715 149.984 97.1408 169.728 118.616C187.455 138.126 198.196 168.091 203.487 193.653C206.206 207.346 207.831 221.489 207.451 235.522C207.176 249.595 203.914 264.317 195.185 275.361C182.24 292.475 164.852 297.795 144.119 298.848C133.466 299.45 122.562 299.269 111.839 298.684C97.9124 297.789 85.149 296.591 73.0228 291.668L72.9234 291.627L72.9351 291.621Z" fill="#FFC3A9"/>
<path d="M92.2001 294.568C84.2193 291.288 77.5248 284.921 73.9056 277.063C71.7423 272.333 70.8536 267.135 70.5847 261.937C69.9006 243.093 75.4375 224.448 82.8453 207.217C87.2128 197.407 93.1063 186.76 102.566 181.346C117.914 172.377 139.296 175.692 151.369 188.824C162.209 200.751 168.769 219.069 172.008 234.691C173.669 243.064 174.663 251.705 174.429 260.283C174.259 268.883 172.265 277.881 166.933 284.634C159.023 295.094 148.393 298.351 135.717 298.988C129.204 299.356 122.539 299.245 115.985 298.889C107.472 298.345 99.6722 297.608 92.2586 294.597L92.2001 294.574V294.568Z" fill="white"/>
<path d="M194.781 271.842C194.781 271.842 223.951 270.719 236.936 244.116C236.936 244.116 243.83 230.014 236.936 226.804C236.936 226.804 228.92 222.314 221.068 238.825C221.068 238.825 206.165 263.668 192.7 263.346L194.781 271.842Z" fill="#FFC3A9"/>
<path d="M86.6165 108.115L89.3996 92.136C89.6042 90.9491 91.0191 90.4346 91.9371 91.2064L103.268 100.672C104.66 100.269 106.057 99.9063 107.478 99.6023L90.6859 85.5701C89.2417 84.3657 87.0375 85.1725 86.7159 87.026L82.442 111.6C83.7809 110.471 85.1665 109.407 86.6107 108.419C86.6107 108.32 86.6048 108.22 86.6224 108.115H86.6165Z" fill="#FFC3A9"/>
<path d="M89.3996 92.13L86.6165 108.109C86.599 108.214 86.6048 108.314 86.6048 108.413C87.6572 107.694 88.733 107.01 89.8381 106.379C94.0711 103.905 98.5906 102.017 103.268 100.666L91.937 91.2004C91.0133 90.4286 89.6042 90.949 89.3996 92.13Z" fill="#FC8C65"/>
<path d="M152.942 91.2005C153.866 90.4288 155.275 90.9491 155.479 92.1302L158.262 108.109C158.315 108.407 158.28 108.688 158.186 108.94C159.672 109.91 161.122 110.939 162.519 112.032C162.519 112.027 162.519 112.021 162.519 112.015L158.169 87.026C157.847 85.1725 155.643 84.3657 154.199 85.5701L136.98 99.9531C138.378 100.281 139.758 100.661 141.132 101.07L152.948 91.2005H152.942Z" fill="#FFC3A9"/>
<path d="M158.262 108.115L155.479 92.1362C155.275 90.9493 153.86 90.4348 152.942 91.2065L141.126 101.076C147.154 102.888 152.919 105.525 158.181 108.951C158.28 108.7 158.309 108.419 158.257 108.121L158.262 108.115Z" fill="#FC8C65"/>
<path d="M71.2337 127.111C68.8131 125.012 66.3049 123.013 63.7674 121.054C59.0198 117.394 54.0969 113.839 48.7822 111.033C46.3675 109.758 43.7598 108.507 41.0294 108.127C40.1992 108.01 39.8425 109.279 40.6786 109.395C42.9998 109.723 45.204 110.688 47.2796 111.734C49.9223 113.067 52.4423 114.628 54.9037 116.265C59.3473 119.23 63.6037 122.481 67.7256 125.872C68.591 126.585 69.4563 127.298 70.3041 128.035C70.9414 128.59 71.8768 127.661 71.2337 127.105V127.111Z" fill="#AD4F36"/>
<path d="M69.2458 129.385C66.2172 128.409 63.1301 127.59 60.043 126.83C53.6818 125.263 47.1977 124.001 40.6552 123.504C37.0887 123.235 33.493 123.2 29.9498 123.743C29.1138 123.872 29.4704 125.141 30.3006 125.012C36.6619 124.041 43.3213 124.878 49.6066 125.971C55.0558 126.912 60.4523 128.198 65.767 129.719C66.8136 130.017 67.8601 130.321 68.895 130.654C69.7019 130.917 70.0468 129.643 69.2458 129.385Z" fill="#AD4F36"/>
<path d="M67.2053 131.83C63.44 132.35 59.6864 132.958 55.9387 133.601C48.6595 134.841 41.3803 136.221 34.2355 138.074C30.8854 138.945 27.5176 139.904 24.3428 141.301C23.5711 141.64 24.2376 142.775 25.0094 142.436C27.7457 141.231 30.6573 140.389 33.5398 139.617C37.1297 138.653 40.7605 137.84 44.403 137.086C50.776 135.776 57.1899 134.665 63.6213 133.677C64.9309 133.478 66.2465 133.28 67.562 133.093C68.3981 132.976 68.0414 131.707 67.2112 131.824L67.2053 131.83Z" fill="#AD4F36"/>
<path d="M70.4327 133.777C62.0192 138.407 53.7052 143.231 45.4963 148.224C42.0526 150.323 38.6264 152.457 35.247 154.661C34.5395 155.123 35.2002 156.263 35.9135 155.795C46.4669 148.902 57.4003 142.57 68.398 136.413C69.2926 135.911 70.193 135.408 71.0934 134.911C71.8359 134.502 71.1694 133.367 70.4269 133.777H70.4327Z" fill="#AD4F36"/>
<path d="M176.925 130.391C179.276 128.345 181.72 126.398 184.187 124.498C188.876 120.884 193.735 117.382 198.968 114.599C201.33 113.342 203.867 112.126 206.545 111.752C207.381 111.635 207.024 110.366 206.194 110.483C203.82 110.816 201.546 111.822 199.418 112.886C196.752 114.219 194.208 115.792 191.729 117.441C187.198 120.457 182.854 123.778 178.65 127.234C177.756 127.965 176.867 128.707 175.996 129.461C175.353 130.017 176.288 130.947 176.925 130.391Z" fill="#AD4F36"/>
<path d="M178.329 133.005C181.281 132.052 184.286 131.251 187.297 130.508C193.559 128.959 199.938 127.69 206.375 127.181C209.878 126.906 213.444 126.825 216.923 127.357C217.753 127.485 218.11 126.217 217.274 126.088C210.819 125.1 204.142 125.883 197.751 126.965C192.174 127.906 186.648 129.21 181.211 130.765C180.129 131.075 179.054 131.385 177.984 131.73C177.183 131.987 177.522 133.262 178.334 132.999L178.329 133.005Z" fill="#AD4F36"/>
<path d="M179.667 135.449C183.403 135.969 187.134 136.571 190.858 137.203C198.079 138.436 205.3 139.799 212.397 141.629C215.718 142.482 219.074 143.406 222.22 144.786C222.986 145.125 223.658 143.991 222.887 143.652C220.092 142.418 217.145 141.541 214.198 140.74C210.643 139.781 207.048 138.968 203.446 138.22C197.003 136.887 190.519 135.764 184.017 134.765C182.69 134.56 181.357 134.361 180.024 134.174C179.194 134.057 178.837 135.326 179.673 135.443L179.667 135.449Z" fill="#AD4F36"/>
<path d="M176.124 137.267C184.538 141.897 192.852 146.721 201.061 151.714C204.504 153.813 207.931 155.947 211.31 158.151C212.023 158.613 212.678 157.479 211.977 157.017C201.423 150.124 190.49 143.792 179.492 137.635C178.598 137.132 177.697 136.63 176.797 136.133C176.054 135.723 175.388 136.858 176.13 137.267H176.124Z" fill="#AD4F36"/>
<path d="M96.1642 145.16C104.528 145.16 111.307 138.38 111.307 130.017C111.307 121.654 104.528 114.874 96.1642 114.874C87.801 114.874 81.0212 121.654 81.0212 130.017C81.0212 138.38 87.801 145.16 96.1642 145.16Z" fill="#F7F7F7"/>
<path d="M104.215 133.414C106.198 133.414 107.805 131.807 107.805 129.824C107.805 127.841 106.198 126.234 104.215 126.234C102.233 126.234 100.625 127.841 100.625 129.824C100.625 131.807 102.233 133.414 104.215 133.414Z" fill="black"/>
<path d="M105.472 129.824C106.328 129.824 107.022 129.13 107.022 128.275C107.022 127.419 106.328 126.725 105.472 126.725C104.617 126.725 103.923 127.419 103.923 128.275C103.923 129.13 104.617 129.824 105.472 129.824Z" fill="white"/>
<path d="M150.767 145.16C159.13 145.16 165.91 138.38 165.91 130.017C165.91 121.654 159.13 114.874 150.767 114.874C142.404 114.874 135.624 121.654 135.624 130.017C135.624 138.38 142.404 145.16 150.767 145.16Z" fill="#F7F7F7"/>
<path d="M142.716 133.414C144.699 133.414 146.306 131.807 146.306 129.824C146.306 127.841 144.699 126.234 142.716 126.234C140.733 126.234 139.126 127.841 139.126 129.824C139.126 131.807 140.733 133.414 142.716 133.414Z" fill="black"/>
<path d="M141.459 129.824C142.315 129.824 143.008 129.13 143.008 128.275C143.008 127.419 142.315 126.725 141.459 126.725C140.603 126.725 139.91 127.419 139.91 128.275C139.91 129.13 140.603 129.824 141.459 129.824Z" fill="white"/>
<path d="M130.596 141.401C130.479 140.851 129.631 141.085 129.748 141.635C129.754 141.676 129.76 141.716 129.771 141.757C129.771 141.781 129.771 141.804 129.777 141.828C129.783 141.904 129.789 141.98 129.795 142.056C129.812 142.471 129.795 142.716 129.66 143.108C129.543 143.459 129.298 143.81 128.929 144.038C128.333 144.4 127.596 144.429 126.918 144.383C125.725 144.295 124.638 143.698 124.188 142.605C123.948 142.015 123.901 141.594 123.913 140.991C123.93 140.126 123.913 139.261 123.913 138.396C126.632 138.238 128.766 136.677 128.766 134.765C128.766 134.648 128.754 134.537 128.742 134.426C127.515 133.437 125.152 133.081 123.404 133.081C121.656 133.081 119.925 133.391 118.195 134.426C118.177 134.537 118.171 134.648 118.171 134.765C118.171 136.677 120.311 138.238 123.03 138.396C123.03 138.396 123.03 138.407 123.03 138.413C123.03 139.308 123.018 140.208 123.03 141.103C123.036 141.64 123.018 141.968 122.866 142.471C122.551 143.523 121.72 144.254 120.61 144.488C119.487 144.728 117.955 144.646 117.388 143.541C117.201 143.178 117.142 142.786 117.148 142.371C117.148 142.231 117.16 142.091 117.177 141.95C117.177 141.915 117.189 141.863 117.195 141.833C117.312 141.284 116.47 141.05 116.347 141.6C116.207 142.237 116.236 142.962 116.458 143.582C116.949 144.967 118.306 145.493 119.692 145.47C121.177 145.441 122.65 144.868 123.387 143.511C123.439 143.412 123.48 143.313 123.521 143.213C124.123 144.377 125.234 145.061 126.544 145.236C127.935 145.423 129.631 145.172 130.327 143.792C130.683 143.079 130.765 142.202 130.602 141.43L130.596 141.401Z" fill="#AD4F36"/>
<path d="M90.5572 247.18C90.5572 247.18 97.7078 253.202 102.403 248.279C102.403 248.279 105.613 244.824 99.2513 240.164L90.5514 247.186L90.5572 247.18Z" fill="#AD4F36"/>
<path d="M87.3649 201.534C87.5462 199.845 86.9732 198.161 85.722 197.009C83.3892 194.852 78.7702 192.519 71.0233 195.91C61.7737 199.956 63.2413 211.474 63.2413 211.474C63.2413 211.474 65.8372 236.954 90.5573 247.18L99.2572 240.158C99.2572 240.158 85.3478 220.589 87.3708 201.534H87.3649Z" fill="#FFC3A9"/>
<path d="M160.677 201.534C160.496 199.845 161.069 198.161 162.32 197.009C164.653 194.852 169.272 192.519 177.019 195.91C186.268 199.956 184.801 211.474 184.801 211.474C184.801 211.474 182.205 236.954 157.485 247.18L148.785 240.158C148.785 240.158 162.694 220.589 160.671 201.534H160.677Z" fill="#FFC3A9"/>
<path d="M157.491 247.18C157.491 247.18 150.34 253.202 145.645 248.279C145.645 248.279 142.435 244.824 148.797 240.164L157.497 247.186L157.491 247.18Z" fill="#AD4F36"/>
<mask id="mask0_12_3132" style="mask-type:luminance" maskUnits="userSpaceOnUse" x="37" y="98" width="171" height="202">
<path d="M72.9351 291.621C59.8794 286.254 48.9226 275.841 43.0056 262.984C39.4684 255.248 38.0125 246.736 37.5682 238.234C36.4514 207.41 45.5022 176.902 57.6284 148.709C64.7731 132.666 74.4144 115.236 89.8907 106.384C115.002 91.715 149.984 97.1408 169.728 118.616C187.455 138.126 198.196 168.091 203.487 193.653C206.206 207.346 207.831 221.489 207.451 235.522C207.176 249.595 203.914 264.317 195.185 275.361C182.24 292.475 164.852 297.795 144.119 298.848C133.466 299.45 122.562 299.269 111.839 298.684C97.9124 297.789 85.149 296.591 73.0228 291.668L72.9234 291.627L72.9351 291.621Z" fill="white"/>
</mask>
<g mask="url(#mask0_12_3132)">
<path d="M66.0688 166.764L26.5814 158.111C22.6638 157.252 18.7921 159.732 17.9337 163.649L17.9324 163.655C17.0739 167.573 19.5538 171.444 23.4714 172.303L62.9588 180.956C66.8763 181.814 70.7481 179.334 71.6065 175.417L71.6078 175.411C72.4662 171.494 69.9864 167.622 66.0688 166.764Z" fill="#FC8C65"/>
<path d="M54.4058 185.209L14.53 176.471C10.7197 175.636 6.95393 178.048 6.11897 181.858L6.11772 181.864C5.28276 185.674 7.69475 189.44 11.505 190.275L51.3808 199.013C55.1911 199.848 58.9569 197.436 59.7918 193.625L59.7931 193.62C60.628 189.809 58.2161 186.044 54.4058 185.209Z" fill="#FC8C65"/>
<path d="M182.962 180.937L222.449 172.284C226.367 171.426 228.847 167.554 227.988 163.636L227.987 163.631C227.129 159.713 223.257 157.233 219.339 158.092L179.852 166.745C175.934 167.603 173.455 171.475 174.313 175.392L174.314 175.398C175.173 179.316 179.044 181.796 182.962 180.937Z" fill="#FC8C65"/>
<path d="M194.549 199.001L234.425 190.263C238.235 189.428 240.647 185.663 239.812 181.852L239.811 181.847C238.976 178.036 235.21 175.624 231.4 176.459L191.524 185.197C187.714 186.032 185.302 189.798 186.137 193.608L186.138 193.614C186.973 197.424 190.739 199.836 194.549 199.001Z" fill="#FC8C65"/>
</g>
<path d="M72.5024 195.506C70.6666 196.003 68.9359 196.874 67.5444 198.167C62.1829 203.148 63.2412 211.468 63.2412 211.468C63.2412 211.468 65.8372 236.948 90.5572 247.174L93.0245 245.18C93.0245 245.18 56.266 210.725 76.7296 194.594L72.5024 195.5V195.506Z" fill="#FCB49A"/>
<path d="M175.545 195.506C177.381 196.003 179.112 196.874 180.503 198.167C185.865 203.148 184.807 211.468 184.807 211.468C184.807 211.468 182.211 236.948 157.491 247.174L155.023 245.18C155.023 245.18 191.782 210.725 171.318 194.594L175.545 195.5V195.506Z" fill="#FCB49A"/>
<g clip-path="url(#clip0_12_3132)">
<path d="M185.36 70.2467L186.424 66.973C187.767 62.8434 189.231 60.53 192.812 59.7355C195.626 59.1088 197.923 58.6083 199.382 57.9577C201.606 56.9602 202.417 55.9204 203.011 54.095C203.813 51.6262 202.335 49.425 199.921 48.6397C197.506 47.8544 194.851 48.3546 193.493 50.3448C191.905 52.674 189.18 53.3926 186.299 52.2177C183.881 51.2593 182.223 48.8802 183.412 45.5877C185.756 39.1133 194.422 36.3559 203.007 39.1477C211.592 41.9396 216.936 48.4818 213.953 57.6566C212.784 61.2505 211.141 63.5653 208.479 65.1909C206.258 66.5436 203.074 67.586 199.885 68.4483C198.051 68.9802 197.433 69.9639 196.98 71.3584L196.195 73.7733L185.359 70.2497L185.36 70.2467ZM189.959 74.5316C193.553 75.7003 195.001 78.5436 193.936 81.8173C192.871 85.091 190.028 86.5389 186.434 85.3702C182.84 84.2015 181.375 81.4121 182.457 78.0845C183.539 74.7569 186.365 73.3629 189.959 74.5316Z" fill="#FF600F"/>
</g>
<g clip-path="url(#clip1_12_3132)">
<path d="M52.7875 58.0894L50.7424 53.7413C48.1626 48.2565 47.4412 44.504 50.325 40.2742C52.5897 36.9471 54.4485 34.243 55.3113 32.1869C56.6206 29.0471 56.4524 27.2138 55.3121 24.7893C53.7698 21.5104 50.1626 20.683 46.9552 22.1916C43.7477 23.7002 41.5251 26.7454 42.0446 30.0686C42.6547 33.9559 40.5685 37.2912 36.5151 38.8483C33.1389 40.1839 29.1782 39.348 27.2425 34.8611C23.4403 26.0342 29.6225 14.9478 41.0254 9.58446C52.4283 4.22114 64.1172 5.77102 69.8487 17.9569C72.0939 22.7303 72.6343 26.6552 71.4784 30.8538C70.5122 34.3516 68.2681 38.4553 65.8476 42.3798C64.4898 44.6736 64.8014 46.2647 65.6725 48.1168L67.1811 51.3243L52.7894 58.0934L52.7875 58.0894ZM61.5613 58.0544C66.3347 55.8093 70.5248 57.3187 72.5699 61.6668C74.615 66.0149 73.1057 70.205 68.3323 72.4501C63.5589 74.6953 59.4024 73.2575 57.3237 68.8378C55.2449 64.4181 56.7879 60.2996 61.5613 58.0544Z" fill="#FF600F"/>
</g>
<g clip-path="url(#clip2_12_3132)">
<path d="M237.295 157.052L237.773 155.113C238.378 152.667 239.128 151.267 241.166 150.657C242.769 150.177 244.077 149.791 244.894 149.353C246.139 148.682 246.565 148.047 246.832 146.965C247.193 145.503 246.246 144.291 244.815 143.938C243.385 143.585 241.87 143.985 241.167 145.194C240.346 146.609 238.799 147.139 237.083 146.579C235.643 146.126 234.583 144.819 235.134 142.864C236.219 139.019 241.118 137.06 246.204 138.315C251.289 139.571 254.656 143.133 253.314 148.568C252.788 150.697 251.935 152.105 250.462 153.158C249.234 154.033 247.434 154.77 245.625 155.403C244.586 155.788 244.27 156.383 244.066 157.209L243.713 158.639L237.294 157.054L237.295 157.052ZM240.136 159.339C242.264 159.865 243.222 161.45 242.743 163.389C242.264 165.328 240.679 166.285 238.55 165.76C236.421 165.234 235.456 163.681 235.943 161.71C236.43 159.739 238.007 158.814 240.136 159.339Z" fill="#FF600F"/>
</g>
<g clip-path="url(#clip3_12_3132)">
<path d="M4.84676 113.843L5.01442 112.332C5.22591 110.425 5.65215 109.293 7.13004 108.629C8.29156 108.106 9.24049 107.684 9.81347 107.272C10.6862 106.642 10.9442 106.119 11.0377 105.277C11.1641 104.137 10.3278 103.317 9.21278 103.193C8.09781 103.069 6.9943 103.523 6.58461 104.506C6.10602 105.655 4.99133 106.21 3.64008 105.96C2.5082 105.761 1.57791 104.88 1.79807 103.35C2.23271 100.339 5.73501 98.3708 9.6989 98.8105C13.6628 99.2502 16.56 101.602 16.0901 105.838C15.9061 107.498 15.4025 108.646 14.3959 109.588C13.5565 110.371 12.2721 111.107 10.9696 111.766C10.2238 112.16 10.0446 112.641 9.97317 113.285L9.84949 114.4L4.84661 113.845L4.84676 113.843ZM7.2197 115.285C8.87904 115.47 9.75978 116.57 9.59213 118.082C9.42447 119.593 8.32396 120.474 6.66462 120.29C5.00528 120.106 4.12178 119.03 4.2922 117.494C4.46261 115.957 5.56037 115.101 7.2197 115.285Z" fill="#FF600F"/>
</g>
<defs>
<clipPath id="clip0_12_3132">
<rect width="32.7789" height="49.0787" fill="white" transform="translate(187.177 34) rotate(18.0139)"/>
</clipPath>
<clipPath id="clip1_12_3132">
<rect width="45.7536" height="68.5052" fill="white" transform="translate(20 19.4736) rotate(-25.1898)"/>
</clipPath>
<clipPath id="clip2_12_3132">
<rect width="19.0192" height="28.4768" fill="white" transform="translate(236.827 136) rotate(13.8715)"/>
</clipPath>
<clipPath id="clip3_12_3132">
<rect width="14.4807" height="21.6814" fill="white" transform="translate(2.39026 98) rotate(6.32949)"/>
</clipPath>
</defs>
</svg>
