<?xml version="1.0" encoding="UTF-8"?>
<svg id="Layer_2" data-name="Layer 2" xmlns="http://www.w3.org/2000/svg" xmlns:xlink="http://www.w3.org/1999/xlink" viewBox="0 0 400.31 375.35">
  <defs>
    <style>
      .cls-1 {
        fill: none;
      }

      .cls-2 {
        fill: #ec4452;
      }

      .cls-3 {
        fill: #ad4f36;
      }

      .cls-4 {
        fill: #ffc33a;
      }

      .cls-5 {
        fill: #ffc3a9;
      }

      .cls-6 {
        fill: #ffedd4;
      }

      .cls-7 {
        fill: #00bc79;
      }

      .cls-8 {
        fill: #ccc;
      }

      .cls-9 {
        fill: #fc8c65;
      }

      .cls-10 {
        fill: #fff;
      }

      .cls-11 {
        fill: #fcb49a;
      }

      .cls-12 {
        fill: #3182f6;
      }

      .cls-13 {
        fill: #f7f7f7;
      }

      .cls-14 {
        fill: #a3a3a3;
      }

      .cls-15 {
        fill: #bfbfbf;
      }

      .cls-16 {
        fill: #c4673d;
      }

      .cls-17 {
        fill: #d8c2a7;
      }

      .cls-18 {
        clip-path: url(#clippath);
      }

      .cls-19 {
        fill: #66281c;
      }

      .cls-20 {
        fill: #9d5545;
      }
    </style>
    <clipPath id="clippath">
      <path class="cls-1" d="M114.57,353.4c-22.33-9.18-41.07-26.99-51.19-48.98-6.05-13.23-8.54-27.79-9.3-42.33-1.91-52.72,13.57-104.9,34.31-153.12,12.22-27.44,28.71-57.25,55.18-72.39,42.95-25.09,102.78-15.81,136.55,20.92,30.32,33.37,48.69,84.62,57.74,128.34,4.65,23.42,7.43,47.61,6.78,71.61-.47,24.07-6.05,49.25-20.98,68.14-22.14,29.27-51.88,38.37-87.34,40.17-18.22,1.03-36.87.72-55.21-.28-23.82-1.53-45.65-3.58-66.39-12l-.17-.07Z"/>
    </clipPath>
  </defs>
  <g id="Layer_1-2" data-name="Layer 1">
    <g>
      <path class="cls-11" d="M132.74,359.08s-17.13,14.28,3.52,15.64c15.48,1.02,29.06.51,34.88.19,1.91-.1,3.69-1.01,4.91-2.48l5.75-6.96-49.06-6.39Z"/>
      <path class="cls-11" d="M269.27,359.1s17.13,14.28-3.52,15.64c-15.48,1.02-29.06.51-34.88.19-1.91-.1-3.69-1.01-4.91-2.48l-5.75-6.96,49.06-6.39Z"/>
      <path class="cls-5" d="M114.56,353.4c-22.33-9.18-41.07-26.99-51.19-48.98-6.05-13.23-8.54-27.79-9.3-42.33-1.91-52.72,13.57-104.9,34.31-153.12,12.22-27.44,28.71-57.25,55.18-72.39,42.95-25.09,102.78-15.81,136.55,20.92,30.32,33.37,48.69,84.62,57.74,128.34,4.65,23.42,7.43,47.61,6.78,71.61-.47,24.07-6.05,49.25-20.98,68.14-22.14,29.27-51.88,38.37-87.34,40.17-18.22,1.03-36.87.72-55.21-.28-23.82-1.53-45.65-3.58-66.39-12l-.17-.07Z"/>
      <path class="cls-10" d="M147.52,358.44c-13.65-5.61-25.1-16.5-31.29-29.94-3.7-8.09-5.22-16.98-5.68-25.87-1.17-32.23,8.3-64.12,20.97-93.59,7.47-16.78,17.55-34.99,33.73-44.25,26.25-15.34,62.82-9.67,83.47,12.79,18.54,20.4,29.76,51.73,35.3,78.45,2.84,14.32,4.54,29.1,4.14,43.77-.29,14.71-3.7,30.1-12.82,41.65-13.53,17.89-31.71,23.46-53.39,24.55-11.14.63-22.54.44-33.75-.17-14.56-.93-27.9-2.19-40.58-7.34l-.1-.04Z"/>
      <path class="cls-5" d="M322.98,319.57s49.89-1.92,72.1-47.42c0,0,11.79-24.12,0-29.61,0,0-13.71-7.68-27.14,20.56,0,0-25.49,42.49-48.52,41.94l3.56,14.53Z"/>
      <path class="cls-5" d="M137.98,39.54l4.76-27.33c.35-2.03,2.77-2.91,4.34-1.59l19.38,16.19c2.38-.69,4.77-1.31,7.2-1.83L144.94.98c-2.47-2.06-6.24-.68-6.79,2.49l-7.31,42.03c2.29-1.93,4.66-3.75,7.13-5.44,0-.17-.01-.34.02-.52Z"/>
      <path class="cls-9" d="M142.74,12.2l-4.76,27.33c-.03.18-.02.35-.02.52,1.8-1.23,3.64-2.4,5.53-3.48,7.24-4.23,14.97-7.46,22.97-9.77l-19.38-16.19c-1.58-1.32-3.99-.43-4.34,1.59Z"/>
      <path class="cls-5" d="M251.43,10.61c1.58-1.32,3.99-.43,4.34,1.59l4.76,27.33c.09.51.03.99-.13,1.42,2.54,1.66,5.02,3.42,7.41,5.29,0-.01,0-.02,0-.03l-7.44-42.74c-.55-3.17-4.32-4.55-6.79-2.49l-29.45,24.6c2.39.56,4.75,1.21,7.1,1.91l20.21-16.88Z"/>
      <path class="cls-9" d="M260.53,39.54l-4.76-27.33c-.35-2.03-2.77-2.91-4.34-1.59l-20.21,16.88c10.31,3.1,20.17,7.61,29.17,13.47.17-.43.22-.91.13-1.42Z"/>
      <path class="cls-3" d="M111.66,72.03c-4.14-3.59-8.43-7.01-12.77-10.36-8.12-6.26-16.54-12.34-25.63-17.14-4.13-2.18-8.59-4.32-13.26-4.97-1.42-.2-2.03,1.97-.6,2.17,3.97.56,7.74,2.21,11.29,4,4.52,2.28,8.83,4.95,13.04,7.75,7.6,5.07,14.88,10.63,21.93,16.43,1.48,1.22,2.96,2.44,4.41,3.7,1.09.95,2.69-.64,1.59-1.59h0Z"/>
      <path class="cls-3" d="M108.27,75.92c-5.18-1.67-10.46-3.07-15.74-4.37-10.88-2.68-21.97-4.84-33.16-5.69-6.1-.46-12.25-.52-18.31.41-1.43.22-.82,2.39.6,2.17,10.88-1.66,22.27-.23,33.02,1.64,9.32,1.61,18.55,3.81,27.64,6.41,1.79.51,3.58,1.03,5.35,1.6,1.38.45,1.97-1.73.6-2.17h0Z"/>
      <path class="cls-3" d="M104.77,80.1c-6.44.89-12.86,1.93-19.27,3.03-12.45,2.12-24.9,4.48-37.12,7.65-5.73,1.49-11.49,3.13-16.92,5.52-1.32.58-.18,2.52,1.14,1.94,4.68-2.06,9.66-3.5,14.59-4.82,6.14-1.65,12.35-3.04,18.58-4.33,10.9-2.24,21.87-4.14,32.87-5.83,2.24-.34,4.49-.68,6.74-1,1.43-.2.82-2.37-.6-2.17h0Z"/>
      <path class="cls-3" d="M110.3,83.43c-14.39,7.92-28.61,16.17-42.65,24.71-5.89,3.59-11.75,7.24-17.53,11.01-1.21.79-.08,2.74,1.14,1.94,18.05-11.79,36.75-22.62,55.56-33.15,1.53-.86,3.07-1.72,4.61-2.57,1.27-.7.13-2.64-1.14-1.94h0Z"/>
      <path class="cls-3" d="M292.43,77.64c4.02-3.5,8.2-6.83,12.42-10.08,8.02-6.18,16.33-12.17,25.28-16.93,4.04-2.15,8.38-4.23,12.96-4.87,1.43-.2.82-2.37-.6-2.17-4.06.57-7.95,2.29-11.59,4.11-4.56,2.28-8.91,4.97-13.15,7.79-7.75,5.16-15.18,10.84-22.37,16.75-1.53,1.25-3.05,2.52-4.54,3.81-1.1.95.5,2.54,1.59,1.59h0Z"/>
      <path class="cls-3" d="M294.83,82.11c5.05-1.63,10.19-3,15.34-4.27,10.71-2.65,21.62-4.82,32.63-5.69,5.99-.47,12.09-.61,18.04.3,1.42.22,2.03-1.95.6-2.17-11.04-1.69-22.46-.35-33.39,1.5-9.54,1.61-18.99,3.84-28.29,6.5-1.85.53-3.69,1.06-5.52,1.65-1.37.44-.79,2.62.6,2.17h0Z"/>
      <path class="cls-3" d="M297.13,86.29c6.39.89,12.77,1.92,19.14,3,12.35,2.11,24.7,4.44,36.84,7.57,5.68,1.46,11.42,3.04,16.8,5.4,1.31.58,2.46-1.36,1.14-1.94-4.78-2.11-9.82-3.61-14.86-4.98-6.08-1.64-12.23-3.03-18.39-4.31-11.02-2.28-22.11-4.2-33.23-5.91-2.27-.35-4.55-.69-6.83-1.01-1.42-.2-2.03,1.97-.6,2.17h0Z"/>
      <path class="cls-3" d="M291.07,89.4c14.39,7.92,28.61,16.17,42.65,24.71,5.89,3.59,11.75,7.24,17.53,11.01,1.22.79,2.34-1.15,1.14-1.94-18.05-11.79-36.75-22.62-55.56-33.15-1.53-.86-3.07-1.72-4.61-2.57-1.27-.7-2.41,1.24-1.14,1.94h0Z"/>
      <circle class="cls-13" cx="154.31" cy="77" r="25.9"/>
      <circle cx="168.07" cy="76.67" r="6.14"/>
      <circle class="cls-10" cx="170.22" cy="74.02" r="2.65"/>
      <circle class="cls-13" cx="247.69" cy="77" r="25.9"/>
      <circle cx="233.93" cy="76.67" r="6.14"/>
      <circle class="cls-10" cx="231.78" cy="74.02" r="2.65"/>
      <path class="cls-3" d="M213.19,96.47c-.2-.94-1.65-.54-1.45.4.01.07.02.14.04.21,0,.04,0,.08.01.12.01.13.02.26.03.39.03.71,0,1.13-.23,1.8-.2.6-.62,1.2-1.25,1.59-1.02.62-2.28.67-3.44.59-2.04-.15-3.9-1.17-4.67-3.04-.41-1.01-.49-1.73-.47-2.76.03-1.48,0-2.96,0-4.44,4.65-.27,8.3-2.94,8.3-6.21,0-.2-.02-.39-.04-.58-2.1-1.69-6.14-2.3-9.13-2.3s-5.95.53-8.91,2.3c-.03.19-.04.38-.04.58,0,3.27,3.66,5.94,8.31,6.21,0,0,0,.02,0,.03,0,1.53-.02,3.07,0,4.6.01.92-.02,1.48-.28,2.34-.54,1.8-1.96,3.05-3.86,3.45-1.92.41-4.54.27-5.51-1.62-.32-.62-.42-1.29-.41-2,0-.24.02-.48.05-.72,0-.06.02-.15.03-.2.2-.94-1.24-1.34-1.45-.4-.24,1.09-.19,2.33.19,3.39.84,2.37,3.16,3.27,5.53,3.23,2.54-.05,5.06-1.03,6.32-3.35.09-.17.16-.34.23-.51,1.03,1.99,2.93,3.16,5.17,3.46,2.38.32,5.28-.11,6.47-2.47.61-1.22.75-2.72.47-4.04Z"/>
      <g class="cls-18">
        <rect class="cls-9" x="19.4" y="132.16" width="93.98" height="24.85" rx="12.42" ry="12.42" transform="translate(32.5 -10.86) rotate(12.36)"/>
        <rect class="cls-9" x="-.81" y="163.64" width="93.98" height="24.17" rx="12.08" ry="12.08" transform="translate(38.7 -5.81) rotate(12.36)"/>
        <rect class="cls-9" x="286.88" y="132.16" width="93.98" height="24.85" rx="12.42" ry="12.42" transform="translate(690.95 214.32) rotate(167.64)"/>
        <rect class="cls-9" x="307.09" y="163.64" width="93.98" height="24.17" rx="12.08" ry="12.08" transform="translate(737.57 271.57) rotate(167.64)"/>
      </g>
      <path class="cls-3" d="M144.71,277.39s12.23,10.3,20.26,1.88c0,0,5.49-5.91-5.39-13.88l-14.88,12.01Z"/>
      <path class="cls-5" d="M139.25,199.32c.31-2.89-.67-5.77-2.81-7.74-3.99-3.69-11.89-7.68-25.14-1.88-15.82,6.92-13.31,26.62-13.31,26.62,0,0,4.44,43.58,46.72,61.07l14.88-12.01s-23.79-33.47-20.33-66.06Z"/>
      <path class="cls-11" d="M113.83,189.01c-3.14.85-6.1,2.34-8.48,4.55-9.17,8.52-7.36,22.75-7.36,22.75,0,0,4.44,43.58,46.72,61.07l4.22-3.41s-62.87-58.93-27.87-86.52l-7.23,1.55Z"/>
      <path class="cls-19" d="M228.2,77.39c-4.53-1.73-9.85-.3-12.91,3.45-1.01,1.24-1.72,2.65-2.14,4.15-7.24-4.63-16.98-4.76-24.52-.58-1.1-3.17-3.51-5.78-6.77-7.02-4.53-1.73-9.85-.3-12.91,3.45-3.02,3.7-3.45,9.03-1,13.15,2.45,4.1,7.27,6.25,11.96,5.4,5.42-.97,9.29-5.84,9.36-11.27-.01-.79-.11-1.56-.27-2.32,7.3-4.19,16.83-4.03,23.81.65-.38,2.56.09,5.24,1.46,7.54,2.45,4.1,7.27,6.25,11.96,5.4,5.42-.97,9.29-5.84,9.36-11.27-.07-4.75-2.97-9.03-7.42-10.73ZM181.23,97.6c-3.97,1.42-8.5.17-11.18-3.08-2.67-3.24-3.02-7.95-.86-11.55,2.14-3.58,6.41-5.52,10.52-4.73,4.74.91,8.12,5.1,8.19,9.89-.06,4.2-2.66,8.05-6.66,9.47ZM227.56,97.6c-3.97,1.42-8.5.17-11.18-3.08-2.67-3.24-3.02-7.95-.86-11.55,2.14-3.58,6.41-5.52,10.52-4.73,4.74.91,8.12,5.1,8.19,9.89-.06,4.2-2.66,8.05-6.66,9.47Z"/>
      <g>
        <rect class="cls-20" x="148.92" y="147.84" width="98.42" height="113.31" rx="9.28" ry="9.28" transform="translate(-67.69 102.44) rotate(-24.9)"/>
        <rect class="cls-16" x="152.86" y="147.42" width="93.79" height="110.18" rx="8.93" ry="8.93" transform="translate(-66.7 102.94) rotate(-24.9)"/>
        <rect class="cls-20" x="156.99" y="151.45" width="81.47" height="96.63" rx="4.51" ry="4.51" transform="translate(-65.74 101.83) rotate(-24.9)"/>
        <rect class="cls-6" x="159.81" y="150.83" width="78" height="94.36" rx="4.36" ry="4.36" transform="translate(-64.89 102.13) rotate(-24.9)"/>
        <path class="cls-14" d="M191.53,142.43l-33.76,15.67c-2.74,1.27-3.9,4.6-2.59,7.43l2.34,5.04c1.31,2.83,4.6,4.09,7.35,2.82l33.76-15.67c2.74-1.27,3.9-4.6,2.59-7.43l-2.34-5.04c-1.31-2.83-4.6-4.09-7.35-2.82ZM198.14,151.88c.6,1.28.07,2.79-1.17,3.37l-32.77,15.21c-1.24.58-2.73,0-3.33-1.28l-2.54-5.48c-.6-1.28-.07-2.79,1.17-3.37l32.77-15.21c1.24-.58,2.73,0,3.33,1.28l2.54,5.48Z"/>
        <path class="cls-8" d="M192.63,141.92l-33.16,15.39c-2.7,1.25-3.87,4.45-2.61,7.15l2.23,4.8c1.25,2.7,4.45,3.87,7.15,2.61l33.16-15.39c2.7-1.25,3.87-4.45,2.61-7.15l-2.23-4.8c-1.25-2.7-4.45-3.87-7.15-2.61ZM198.99,150.89c.57,1.22.04,2.67-1.18,3.24l-32.19,14.94c-1.22.57-2.67.04-3.24-1.18l-2.42-5.22c-.57-1.22-.04-2.67,1.18-3.24l32.19-14.94c1.22-.57,2.67-.04,3.24,1.18l2.42,5.22Z"/>
        <rect class="cls-14" x="165.31" y="150.71" width="27.01" height="7.86" rx="2.25" ry="2.25" transform="translate(-48.49 89.68) rotate(-24.9)"/>
        <rect class="cls-8" x="165.65" y="150.63" width="26.5" height="7.18" rx="2.13" ry="2.13" transform="translate(-48.31 89.67) rotate(-24.9)"/>
        <g>
          <circle class="cls-14" cx="172.07" cy="156.87" r="2.03"/>
          <circle class="cls-15" cx="172.18" cy="156.42" r="1.76"/>
        </g>
        <g>
          <circle class="cls-14" cx="185.32" cy="150.72" r="2.03"/>
          <circle class="cls-15" cx="185.44" cy="150.26" r="1.76"/>
        </g>
        <g>
          <path class="cls-12" d="M177.32,191.72l13.14-6.1c3.35,7.21.17,15.89-7.04,19.24s-15.89.17-19.24-7.04c-1.73-3.72-1.8-8.01-.19-11.78l13.32,5.68Z"/>
          <path class="cls-2" d="M177.32,191.72l-3.3-14.1c1.91-.45,3.9-.5,5.83-.16s3.78,1.08,5.42,2.15l-7.95,12.11Z"/>
          <path class="cls-4" d="M177.4,191.68l7.95-12.11c2.26,1.48,4.05,3.56,5.19,6.01.03.07.06.14.09.21l-13.23,5.89Z"/>
          <path class="cls-7" d="M177.4,191.68l-13.55-5.12c1.34-3.54,4.01-6.42,7.45-8.01.95-.44,1.95-.78,2.98-1.01l3.12,14.14Z"/>
        </g>
        <rect class="cls-17" x="194.98" y="185.65" width="32.78" height="5.93" rx="2.96" ry="2.96" transform="translate(-59.77 106.54) rotate(-24.9)"/>
        <rect class="cls-17" x="191.32" y="179.29" width="18.92" height="5.93" rx="2.96" ry="2.96" transform="translate(-58.08 101.49) rotate(-24.9)"/>
        <rect class="cls-17" x="170.4" y="201.3" width="63.07" height="5.93" rx="2.96" ry="2.96" transform="translate(-67.24 104.03) rotate(-24.9)"/>
        <rect class="cls-17" x="174.71" y="210.58" width="63.07" height="5.93" rx="2.96" ry="2.96" transform="translate(-70.74 106.7) rotate(-24.9)"/>
        <rect class="cls-17" x="179.02" y="219.85" width="63.07" height="5.93" rx="2.96" ry="2.96" transform="translate(-74.25 109.38) rotate(-24.9)"/>
        <rect class="cls-17" x="183.95" y="233.19" width="38.44" height="5.93" rx="2.31" ry="2.31" transform="translate(-80.55 107.51) rotate(-24.9)"/>
      </g>
      <g>
        <path class="cls-3" d="M259.19,277.39s-12.23,10.3-20.26,1.88c0,0-5.49-5.91,5.39-13.88l14.88,12.01Z"/>
        <path class="cls-5" d="M264.65,199.32c-.31-2.89.67-5.77,2.81-7.74,3.99-3.69,11.89-7.68,25.14-1.88,15.82,6.92,13.31,26.62,13.31,26.62,0,0-4.44,43.58-46.72,61.07l-14.88-12.01s23.79-33.47,20.33-66.06Z"/>
        <path class="cls-11" d="M290.07,189.01c3.14.85,6.1,2.34,8.48,4.55,9.17,8.52,7.36,22.75,7.36,22.75,0,0-4.44,43.58-46.72,61.07l-4.22-3.41s62.87-58.93,27.87-86.52l7.23,1.55Z"/>
      </g>
    </g>
  </g>
</svg>