<svg width="96" height="98" viewBox="0 0 96 98" fill="none" xmlns="http://www.w3.org/2000/svg">
<path d="M26.4678 93.3066C26.4678 93.3066 22.0165 97.0173 27.3824 97.3707C31.405 97.6358 34.9338 97.5033 36.4461 97.4201C36.9424 97.3941 37.405 97.1577 37.722 96.7757L39.2161 94.9671L26.4678 93.3066Z" fill="#FCB49A"/>
<path d="M61.948 93.312C61.948 93.312 66.3992 97.0227 61.0333 97.3761C57.0108 97.6412 53.482 97.5086 51.9696 97.4255C51.4733 97.3995 51.0108 97.163 50.6937 96.781L49.1996 94.9725L61.948 93.312Z" fill="#FCB49A"/>
<path d="M21.7436 91.8305C15.9411 89.4451 11.0715 84.8171 8.44176 79.1029C6.86965 75.6651 6.22261 71.8816 6.02513 68.1034C5.52881 54.4039 9.55133 40.8448 14.9407 28.3147C18.1161 21.1843 22.401 13.4381 29.2793 9.50397C40.44 2.98426 55.987 5.3957 64.7622 14.9401C72.641 23.6114 77.4145 36.9288 79.7661 48.2896C80.9744 54.3753 81.6968 60.6612 81.5279 66.8976C81.4058 73.1523 79.9558 79.6954 76.0762 84.604C70.3231 92.2099 62.5951 94.5746 53.3807 95.0423C48.6462 95.3099 43.7999 95.2294 39.0342 94.9695C32.8445 94.572 27.1719 94.0393 21.7826 91.8513L21.7384 91.8331L21.7436 91.8305Z" fill="#FFC3A9"/>
<path d="M30.3109 93.1404C26.7639 91.6826 23.7886 88.8528 22.1801 85.3604C21.2187 83.2582 20.8237 80.9481 20.7042 78.638C20.4001 70.2629 22.861 61.9762 26.1533 54.3184C28.0944 49.958 30.7137 45.2261 34.9181 42.8199C41.7393 38.8337 51.2421 40.3071 56.608 46.1434C61.4257 51.4444 64.3412 59.5856 65.7808 66.5289C66.5188 70.2499 66.9606 74.0906 66.8566 77.9026C66.7813 81.725 65.8952 85.7242 63.5253 88.7255C60.0095 93.3742 55.2854 94.8216 49.6518 95.1049C46.757 95.2686 43.7947 95.2192 40.8817 95.0607C37.0983 94.819 33.6319 94.4916 30.3369 93.1534L30.3109 93.143V93.1404Z" fill="white"/>
<path d="M75.9021 83.04C75.9021 83.04 88.8662 82.5411 94.6375 70.7178C94.6375 70.7178 97.7012 64.4502 94.6375 63.0236C94.6375 63.0236 91.0749 61.0279 87.5851 68.3661C87.5851 68.3661 80.9615 79.4073 74.9771 79.2644L75.9021 83.04Z" fill="#FFC3A9"/>
<path d="M27.832 10.2733L29.0689 3.17153C29.1598 2.64403 29.7887 2.41536 30.1966 2.75836L35.2326 6.96538C35.851 6.78608 36.4721 6.62497 37.1035 6.48985L29.6405 0.25338C28.9987 -0.281916 28.0191 0.0766805 27.8761 0.900414L25.9766 11.822C26.5717 11.3205 27.1875 10.8476 27.8294 10.4084C27.8294 10.3643 27.8268 10.3201 27.8346 10.2733H27.832Z" fill="#FFC3A9"/>
<path d="M29.0688 3.16876L27.8319 10.2705C27.8241 10.3173 27.8267 10.3615 27.8267 10.4057C28.2944 10.086 28.7726 9.78202 29.2637 9.50138C31.145 8.4022 33.1537 7.56287 35.2325 6.96261L30.1966 2.7556C29.786 2.41259 29.1598 2.64386 29.0688 3.16876Z" fill="#FC8C65"/>
<path d="M57.3121 2.75576C57.7227 2.41276 58.3489 2.64403 58.4399 3.16893L59.6768 10.2707C59.7002 10.4032 59.6846 10.528 59.643 10.6397C60.303 11.071 60.9475 11.5284 61.5685 12.0143C61.5685 12.0117 61.5685 12.0091 61.5685 12.0065L59.6352 0.900414C59.4923 0.0766805 58.5126 -0.281916 57.8708 0.25338L50.2181 6.64576C50.8392 6.79128 51.4524 6.96018 52.0631 7.14208L57.3147 2.75576H57.3121Z" fill="#FFC3A9"/>
<path d="M59.677 10.2735L58.4401 3.17176C58.3491 2.64426 57.7203 2.41559 57.3123 2.75859L52.0607 7.14491C54.7398 7.95045 57.3019 9.12239 59.6406 10.6451C59.6847 10.5334 59.6977 10.4087 59.6744 10.2761L59.677 10.2735Z" fill="#FC8C65"/>
<path d="M20.9926 18.7162C19.9168 17.7833 18.8021 16.8946 17.6743 16.0241C15.5643 14.3974 13.3763 12.8175 11.0143 11.5702C9.94109 11.0038 8.78215 10.4477 7.56864 10.2788C7.19964 10.2268 7.04113 10.7907 7.41272 10.8426C8.44434 10.9882 9.42398 11.4169 10.3465 11.8821C11.521 12.4745 12.641 13.1683 13.7349 13.8959C15.7098 15.2134 17.6016 16.6582 19.4335 18.1653C19.8181 18.4823 20.2027 18.7993 20.5795 19.1268C20.8627 19.3736 21.2785 18.9604 20.9926 18.7136V18.7162Z" fill="#AD4F36"/>
<path d="M20.1091 19.7266C18.763 19.2926 17.391 18.9288 16.019 18.591C13.1918 17.8946 10.31 17.3333 7.40226 17.1124C5.81715 16.9929 4.21906 16.9773 2.64435 17.219C2.27276 17.2761 2.43127 17.84 2.80026 17.7829C5.62746 17.3515 8.58718 17.7231 11.3806 18.209C13.8024 18.6274 16.2009 19.1991 18.5629 19.8747C19.0281 20.0072 19.4932 20.1423 19.9531 20.2904C20.3117 20.4074 20.4651 19.8409 20.1091 19.7266Z" fill="#AD4F36"/>
<path d="M19.2022 20.8129C17.5287 21.0441 15.8605 21.3144 14.1948 21.6002C10.9597 22.1511 7.72448 22.7644 4.54908 23.5881C3.06013 23.9753 1.56338 24.4014 0.152375 25.0225C-0.190631 25.1732 0.105601 25.6773 0.448607 25.5266C1.66472 24.9913 2.95878 24.6171 4.23986 24.2741C5.83535 23.8453 7.44904 23.4841 9.06792 23.1489C11.9003 22.5669 14.7509 22.0732 17.6093 21.634C18.1914 21.5456 18.776 21.4573 19.3607 21.3741C19.7323 21.3222 19.5738 20.7583 19.2048 20.8103L19.2022 20.8129Z" fill="#AD4F36"/>
<path d="M20.6365 21.6781C16.8972 23.7361 13.2021 25.8799 9.55377 28.0991C8.02324 29.0319 6.5005 29.9804 4.99855 30.9601C4.68413 31.1653 4.97776 31.672 5.29478 31.4642C9.98513 28.4005 14.8444 25.5863 19.7322 22.85C20.1298 22.6266 20.53 22.4031 20.9301 22.1822C21.2601 22.0003 20.9639 21.4962 20.6339 21.6781H20.6365Z" fill="#AD4F36"/>
<path d="M67.9662 20.1736C69.0108 19.2641 70.097 18.3988 71.1936 17.5543C73.2776 15.9484 75.437 14.3919 77.7626 13.155C78.8124 12.5963 79.9402 12.0558 81.1303 11.8895C81.5019 11.8376 81.3434 11.2737 80.9744 11.3256C79.9194 11.4738 78.9086 11.9207 77.9627 12.3936C76.7778 12.9861 75.6474 13.6851 74.5457 14.4179C72.5318 15.7587 70.6011 17.2347 68.7328 18.7704C68.3352 19.0952 67.9402 19.4253 67.553 19.7605C67.2672 20.0073 67.6829 20.4205 67.9662 20.1736Z" fill="#AD4F36"/>
<path d="M68.5897 21.335C69.902 20.9115 71.2376 20.5555 72.5759 20.2255C75.3589 19.5369 78.1939 18.973 81.0549 18.7469C82.6114 18.6248 84.1965 18.5884 85.7426 18.8249C86.1116 18.882 86.2701 18.3182 85.8985 18.261C83.0297 17.8218 80.0622 18.17 77.222 18.6508C74.743 19.0691 72.2874 19.6486 69.8708 20.3398C69.3901 20.4775 68.9119 20.6153 68.4364 20.7686C68.0804 20.8829 68.2311 21.4494 68.5923 21.3324L68.5897 21.335Z" fill="#AD4F36"/>
<path d="M69.1849 22.4214C70.8454 22.6527 72.5032 22.9203 74.1585 23.201C77.3677 23.7493 80.5769 24.3547 83.7315 25.1681C85.2074 25.5474 86.699 25.958 88.097 26.5713C88.4374 26.722 88.7362 26.2179 88.3932 26.0672C87.1511 25.5189 85.8415 25.1291 84.5318 24.7731C82.9519 24.3469 81.3538 23.9857 79.7531 23.6531C76.8895 23.0607 74.0078 22.5617 71.1182 22.1174C70.5283 22.0264 69.9359 21.9381 69.3434 21.8549C68.9744 21.803 68.8159 22.3669 69.1875 22.4188L69.1849 22.4214Z" fill="#AD4F36"/>
<path d="M67.61 23.2296C71.3493 25.2876 75.0444 27.4314 78.6928 29.6506C80.2233 30.5834 81.746 31.5319 83.248 32.5115C83.565 32.7168 83.856 32.2127 83.5442 32.0074C78.8539 28.9438 73.9946 26.1295 69.1068 23.3933C68.7092 23.1698 68.309 22.9464 67.9089 22.7255C67.5789 22.5436 67.2826 23.0477 67.6126 23.2296H67.61Z" fill="#AD4F36"/>
<path d="M32.0728 26.7375C35.7898 26.7375 38.803 23.7243 38.803 20.0073C38.803 16.2903 35.7898 13.2771 32.0728 13.2771C28.3558 13.2771 25.3426 16.2903 25.3426 20.0073C25.3426 23.7243 28.3558 26.7375 32.0728 26.7375Z" fill="#F7F7F7"/>
<path d="M35.6509 21.5174C36.532 21.5174 37.2464 20.8031 37.2464 19.9219C37.2464 19.0407 36.532 18.3264 35.6509 18.3264C34.7697 18.3264 34.0554 19.0407 34.0554 19.9219C34.0554 20.8031 34.7697 21.5174 35.6509 21.5174Z" fill="black"/>
<path d="M36.2095 19.9217C36.5899 19.9217 36.8982 19.6134 36.8982 19.233C36.8982 18.8527 36.5899 18.5444 36.2095 18.5444C35.8292 18.5444 35.5209 18.8527 35.5209 19.233C35.5209 19.6134 35.8292 19.9217 36.2095 19.9217Z" fill="white"/>
<path d="M56.3404 26.7375C60.0574 26.7375 63.0706 23.7243 63.0706 20.0073C63.0706 16.2903 60.0574 13.2771 56.3404 13.2771C52.6234 13.2771 49.6102 16.2903 49.6102 20.0073C49.6102 23.7243 52.6234 26.7375 56.3404 26.7375Z" fill="#F7F7F7"/>
<path d="M52.7622 21.5174C53.6434 21.5174 54.3577 20.8031 54.3577 19.9219C54.3577 19.0407 53.6434 18.3264 52.7622 18.3264C51.881 18.3264 51.1667 19.0407 51.1667 19.9219C51.1667 20.8031 51.881 21.5174 52.7622 21.5174Z" fill="black"/>
<path d="M52.2035 19.9217C52.5838 19.9217 52.8921 19.6134 52.8921 19.233C52.8921 18.8527 52.5838 18.5444 52.2035 18.5444C51.8232 18.5444 51.5149 18.8527 51.5149 19.233C51.5149 19.6134 51.8232 19.9217 52.2035 19.9217Z" fill="white"/>
<path d="M47.3754 25.0666C47.3235 24.8223 46.9467 24.9263 46.9986 25.1705C47.0012 25.1887 47.0038 25.2069 47.009 25.2251C47.009 25.2355 47.009 25.2459 47.0116 25.2563C47.0142 25.2901 47.0168 25.3239 47.0194 25.3576C47.0272 25.5421 47.0194 25.6513 46.9597 25.8254C46.9077 25.9813 46.7986 26.1372 46.6349 26.2385C46.3698 26.3996 46.0424 26.4126 45.741 26.3919C45.2109 26.3529 44.7275 26.0878 44.5275 25.6019C44.4209 25.3394 44.4001 25.1524 44.4053 24.8847C44.4131 24.5001 44.4053 24.1155 44.4053 23.731C45.6136 23.6608 46.5621 22.967 46.5621 22.1173C46.5621 22.0653 46.5569 22.0159 46.5517 21.9666C46.006 21.5274 44.9562 21.3689 44.1792 21.3689C43.4023 21.3689 42.6331 21.5066 41.864 21.9666C41.8562 22.0159 41.8536 22.0653 41.8536 22.1173C41.8536 22.967 42.8046 23.6608 44.0129 23.731C44.0129 23.731 44.0129 23.7362 44.0129 23.7388C44.0129 24.1363 44.0077 24.5365 44.0129 24.9341C44.0155 25.1731 44.0077 25.3187 43.9402 25.5421C43.7999 26.0099 43.4309 26.3347 42.9372 26.4386C42.4382 26.5452 41.7574 26.5088 41.5054 26.0177C41.4222 25.8566 41.3962 25.6825 41.3988 25.498C41.3988 25.4356 41.404 25.3732 41.4118 25.3109C41.4118 25.2953 41.417 25.2719 41.4196 25.2589C41.4716 25.0146 41.0974 24.9107 41.0428 25.155C40.9805 25.4382 40.9935 25.7604 41.0922 26.0359C41.3105 26.6517 41.9133 26.8856 42.5292 26.8752C43.1892 26.8622 43.844 26.6075 44.1715 26.0047C44.1948 25.9605 44.213 25.9163 44.2312 25.8721C44.4989 26.3893 44.9926 26.6933 45.5747 26.7712C46.1931 26.8544 46.9467 26.7427 47.2559 26.1294C47.4144 25.8124 47.4508 25.4226 47.378 25.0796L47.3754 25.0666Z" fill="#AD4F36"/>
<mask id="mask0_12_3184" style="mask-type:luminance" maskUnits="userSpaceOnUse" x="5" y="5" width="77" height="91">
<path d="M21.7487 91.8305C15.9462 89.4451 11.0765 84.8171 8.44682 79.1029C6.87471 75.6651 6.22768 71.8816 6.03019 68.1034C5.53387 54.4039 9.55639 40.8448 14.9457 28.3147C18.1211 21.1843 22.4061 13.4381 29.2844 9.50397C40.4451 2.98426 55.9921 5.3957 64.7673 14.9401C72.646 23.6114 77.4195 36.9288 79.7712 48.2896C80.9795 54.3753 81.7019 60.6612 81.533 66.8976C81.4109 73.1523 79.9609 79.6954 76.0813 84.604C70.3282 92.2099 62.6001 94.5746 53.3858 95.0423C48.6512 95.3099 43.805 95.2294 39.0393 94.9695C32.8496 94.572 27.177 94.0393 21.7877 91.8513L21.7435 91.8331L21.7487 91.8305Z" fill="white"/>
</mask>
<g mask="url(#mask0_12_3184)">
<path d="M18.6971 36.3393L1.14732 32.4936C-0.593797 32.112 -2.31454 33.2142 -2.69608 34.9553L-2.69663 34.9578C-3.07817 36.699 -1.97601 38.4197 -0.234898 38.8012L17.3149 42.647C19.056 43.0285 20.7768 41.9263 21.1583 40.1852L21.1589 40.1827C21.5404 38.4416 20.4382 36.7208 18.6971 36.3393Z" fill="#FC8C65"/>
<path d="M13.5138 44.5369L-4.20864 40.6534C-5.90209 40.2823 -7.57573 41.3543 -7.94682 43.0477L-7.94738 43.0502C-8.31847 44.7437 -7.24648 46.4173 -5.55303 46.7884L12.1694 50.672C13.8628 51.0431 15.5365 49.9711 15.9076 48.2776L15.9081 48.2751C16.2792 46.5816 15.2072 44.908 13.5138 44.5369Z" fill="#FC8C65"/>
<path d="M70.6492 42.6386L88.199 38.7929C89.9401 38.4113 91.0423 36.6906 90.6607 34.9495L90.6602 34.9469C90.2786 33.2058 88.5579 32.1037 86.8168 32.4852L69.267 36.3309C67.5259 36.7125 66.4237 38.4332 66.8053 40.1743L66.8058 40.1769C67.1873 41.918 68.9081 43.0201 70.6492 42.6386Z" fill="#FC8C65"/>
<path d="M75.7988 50.667L93.5212 46.7835C95.2146 46.4124 96.2866 44.7388 95.9155 43.0453L95.915 43.0428C95.5439 41.3493 93.8703 40.2773 92.1768 40.6484L74.4544 44.532C72.761 44.9031 71.689 46.5767 72.0601 48.2702L72.0606 48.2727C72.4317 49.9661 74.1053 51.0381 75.7988 50.667Z" fill="#FC8C65"/>
</g>
<path d="M29.5807 72.0792C29.5807 72.0792 32.7587 74.7556 34.8453 72.5677C34.8453 72.5677 36.2719 71.032 33.4447 68.9609L29.5781 72.0818L29.5807 72.0792Z" fill="#AD4F36"/>
<path d="M56.5767 47.0713L53.0037 47.6975L51.7564 47.9158L34.5333 50.9301C33.099 51.1821 32.1375 52.549 32.3896 53.9833L36.5966 78.0249C36.8486 79.4593 38.2155 80.4208 39.6498 80.1687L58.1202 76.9361C59.5546 76.6841 60.516 75.3172 60.264 73.8829L56.9379 54.8746L57.9123 54.7031C58.2865 54.6382 58.5385 54.2796 58.471 53.9054L57.3718 47.6299C57.3068 47.2558 56.9482 47.0037 56.5741 47.0713H56.5767Z" fill="#FFAA00"/>
<path d="M53.9705 47.3467L50.3715 47.9756L49.1164 48.1964L31.779 51.2315C30.3343 51.4836 29.3676 52.8608 29.6197 54.3056L33.8553 78.5083C34.1073 79.953 35.4845 80.9197 36.9293 80.6676L55.5218 77.4143C56.9666 77.1622 57.9332 75.785 57.6812 74.3402L54.3317 55.2047L55.3139 55.0332C55.6907 54.9682 55.9428 54.607 55.8778 54.2302L54.7734 47.9132C54.7085 47.5364 54.3473 47.2843 53.9705 47.3493V47.3467Z" fill="#FFC33A"/>
<path d="M38.6209 56.8867L36.9085 57.1865C36.2469 57.3023 35.8045 57.9326 35.9203 58.5941L38.056 70.7932C38.1718 71.4548 38.802 71.8972 39.4636 71.7814L41.176 71.4816C41.8376 71.3658 42.28 70.7356 42.1642 70.074L40.0285 57.8749C39.9127 57.2134 39.2825 56.7709 38.6209 56.8867Z" fill="#EC4452"/>
<path d="M44.4029 60.3791L42.3015 60.747C41.7473 60.844 41.3767 61.3718 41.4738 61.926L42.9122 70.1423C43.0092 70.6964 43.537 71.067 44.0912 70.97L46.1926 70.6021C46.7468 70.5051 47.1173 69.9772 47.0203 69.4231L45.5819 61.2068C45.4849 60.6526 44.957 60.282 44.4029 60.3791Z" fill="#00BC79"/>
<path d="M49.7165 61.676L47.3898 62.0833C46.8979 62.1694 46.5689 62.6381 46.655 63.13L47.7547 69.4113C47.8408 69.9032 48.3094 70.2322 48.8013 70.1461L51.128 69.7387C51.62 69.6526 51.9489 69.184 51.8628 68.6921L50.7632 62.4108C50.6771 61.9188 50.2084 61.5899 49.7165 61.676Z" fill="#3182F6"/>
<path d="M28.162 51.7923C28.2425 51.0414 27.9879 50.293 27.4318 49.7811C26.395 48.8222 24.3421 47.7854 20.8991 49.2926C16.7882 51.0907 17.4404 56.2098 17.4404 56.2098C17.4404 56.2098 18.5942 67.5342 29.5808 72.0791L33.4474 68.9582C33.4474 68.9582 27.2655 60.2609 28.1646 51.7923H28.162Z" fill="#FFC3A9"/>
<path d="M21.5566 49.1134C20.7406 49.3343 19.9715 49.7214 19.353 50.2957C16.9702 52.5097 17.4405 56.2074 17.4405 56.2074C17.4405 56.2074 18.5943 67.5317 29.5808 72.0766L30.6774 71.1905C30.6774 71.1905 14.3405 55.8773 23.4353 48.708L21.5566 49.1108V49.1134Z" fill="#FCB49A"/>
<path d="M60.7448 51.7923C60.6642 51.0414 60.9189 50.293 61.4749 49.7811C62.5118 48.8222 64.5646 47.7854 68.0076 49.2926C72.1185 51.0907 71.4663 56.2098 71.4663 56.2098C71.4663 56.2098 70.3125 67.5342 59.326 72.0791L55.4594 68.9582C55.4594 68.9582 61.6412 60.2609 60.7422 51.7923H60.7448Z" fill="#FFC3A9"/>
<path d="M59.3287 72.0792C59.3287 72.0792 56.1507 74.7556 54.0641 72.5677C54.0641 72.5677 52.6375 71.032 55.4647 68.9609L59.3313 72.0818L59.3287 72.0792Z" fill="#AD4F36"/>
<path d="M67.3529 49.1134C68.1689 49.3343 68.938 49.7214 69.5565 50.2957C71.9393 52.5097 71.469 56.2074 71.469 56.2074C71.469 56.2074 70.3153 67.5317 59.3287 72.0766L58.2321 71.1905C58.2321 71.1905 74.5691 55.8773 65.4742 48.708L67.3529 49.1108V49.1134Z" fill="#FCB49A"/>
<path d="M51.2757 20.109C50.0986 19.6595 48.7162 20.031 47.921 21.0055C47.6586 21.3277 47.4741 21.6941 47.3649 22.0839C45.4836 20.8808 42.9526 20.847 40.9933 21.9332C40.7075 21.1094 40.0813 20.4312 39.2341 20.109C38.057 19.6595 36.6746 20.031 35.8794 21.0055C35.0947 21.9669 34.9829 23.352 35.6196 24.4226C36.2562 25.488 37.5087 26.0466 38.7274 25.8258C40.1358 25.5737 41.1414 24.3082 41.1596 22.8972C41.157 22.6919 41.1311 22.4919 41.0895 22.2944C42.9864 21.2056 45.4628 21.2472 47.2766 22.4633C47.1778 23.1285 47.3 23.8249 47.656 24.4226C48.2926 25.488 49.5451 26.0466 50.7638 25.8258C52.1722 25.5737 53.1778 24.3082 53.196 22.8972C53.1778 21.6629 52.4243 20.5508 51.2679 20.109H51.2757ZM39.0704 25.3606C38.0388 25.7296 36.8617 25.4048 36.1653 24.5603C35.4715 23.7184 35.3805 22.4945 35.9418 21.559C36.4979 20.6287 37.6075 20.1246 38.6754 20.3299C39.9071 20.5663 40.7855 21.6551 40.8036 22.8998C40.7881 23.9912 40.1124 24.9916 39.073 25.3606H39.0704ZM51.1094 25.3606C50.0778 25.7296 48.9007 25.4048 48.2042 24.5603C47.5104 23.7184 47.4195 22.4945 47.9808 21.559C48.5369 20.6287 49.6464 20.1246 50.7144 20.3299C51.9461 20.5663 52.8244 21.6551 52.8426 22.8998C52.827 23.9912 52.1514 24.9916 51.112 25.3606H51.1094Z" fill="#66281C"/>
</svg>
