<svg width="20" height="24" viewBox="0 0 20 24" fill="none" xmlns="http://www.w3.org/2000/svg">
<path d="M0.000426984 24H19.6384C19.6384 24 19.8691 16.9468 11.3869 16.1833C2.90472 15.4199 -0.0377438 20.0884 0.000426984 24Z" fill="#482EC4"/>
<path d="M11.4633 15.8779C11.4633 15.8779 17.2702 15.9161 17.6918 13.7387C18.1116 11.5613 18.4552 -0.971968 8.67516 0.0603015C8.67516 0.0603015 6.26875 0.632863 6.26875 1.85599C6.26875 1.85599 1.79779 1.74147 2.29567 14.1968C2.29567 14.1968 3.21343 15.7252 11.4649 15.8779H11.4633Z" fill="#333333"/>
<path d="M6.91598 3.68823C6.91598 3.68823 6.64879 6.66887 3.97351 8.5409C3.97351 8.5409 3.05576 13.6989 8.25196 15.0366V16.2597C8.25196 16.2597 8.71996 17.5592 10.0526 17.2538C11.3853 16.9484 11.4616 15.878 11.4616 15.878V14.9984C11.4616 14.9984 15.6637 14.1188 15.511 9.15329C15.511 9.15329 14.824 6.82321 12.4922 6.74687C12.4922 6.74687 8.05944 6.40333 6.91432 3.68989L6.91598 3.68823Z" fill="#FFCBA7"/>
<path d="M8.17728 9.80216C8.53566 9.80216 8.82619 9.38457 8.82619 8.86946C8.82619 8.35435 8.53566 7.93677 8.17728 7.93677C7.8189 7.93677 7.52838 8.35435 7.52838 8.86946C7.52838 9.38457 7.8189 9.80216 8.17728 9.80216Z" fill="black"/>
<path d="M11.6143 9.80216C11.9727 9.80216 12.2632 9.38457 12.2632 8.86946C12.2632 8.35435 11.9727 7.93677 11.6143 7.93677C11.2559 7.93677 10.9654 8.35435 10.9654 8.86946C10.9654 9.38457 11.2559 9.80216 11.6143 9.80216Z" fill="black"/>
<path d="M11.1612 12.099C11.1197 12.1455 11.0733 12.1886 11.0251 12.2285C11.0019 12.25 10.977 12.2699 10.9521 12.2899C10.9438 12.2965 10.9056 12.328 10.9256 12.3114C10.9455 12.2948 10.8957 12.3347 10.8874 12.3397C10.8177 12.3911 10.7447 12.4392 10.67 12.4824C10.3132 12.6915 9.89993 12.7927 9.48171 12.6716C9.14481 12.5737 8.866 12.3513 8.62868 12.0973C8.44446 11.8999 8.1474 12.1969 8.33161 12.3944C8.77141 12.8657 9.37218 13.2109 10.036 13.1329C10.4891 13.0798 10.8973 12.8724 11.2475 12.5869C11.3205 12.5272 11.3919 12.4641 11.4566 12.3944C11.6375 12.1953 11.3421 11.8965 11.1596 12.0973L11.1612 12.099Z" fill="#5C2F17"/>
<path d="M18.4186 24.0001H1.20695L0.574646 15.2805C0.574646 14.8424 0.9298 14.4856 1.36959 14.4856H18.2726C18.7107 14.4856 19.0675 14.8407 19.0675 15.2805L18.4203 24.0001H18.4186Z" fill="#C4C4C4"/>
</svg>
