<svg width="122" height="108" viewBox="0 0 122 108" fill="none" xmlns="http://www.w3.org/2000/svg">
<path d="M57.7761 1.99647C58.7209 -0.665644 62.4857 -0.665634 63.4305 1.99648L75.8352 36.9478C76.26 38.1447 77.3924 38.9444 78.6624 38.9444H118.201C121.171 38.9444 122.335 42.7975 119.863 44.4423L88.344 65.4067C87.1987 66.1685 86.7182 67.6117 87.1783 68.9081L99.3223 103.125C100.287 105.843 97.2351 108.224 94.8337 106.626L62.2648 84.9634C61.2583 84.294 59.9484 84.294 58.9419 84.9634L26.373 106.626C23.9716 108.224 20.9197 105.843 21.8843 103.125L34.0284 68.908C34.4885 67.6117 34.008 66.1685 32.8626 65.4067L1.34404 44.4423C-1.12876 42.7975 0.0356588 38.9444 3.00552 38.9444H42.5442C43.8142 38.9444 44.9467 38.1447 45.3715 36.9478L57.7761 1.99647Z" fill="currentColor"/>
</svg>
