<svg width="312" height="243" viewBox="0 0 312 243" fill="none" xmlns="http://www.w3.org/2000/svg">
<g clip-path="url(#clip0_12_3361)">
<path d="M184.526 235.065C184.526 235.065 176.365 241.868 186.203 242.516C193.577 243.001 200.047 242.759 202.819 242.606C203.729 242.558 204.577 242.125 205.159 241.425L207.898 238.109L184.526 235.065Z" fill="#FCB49A"/>
<path d="M249.573 235.074C249.573 235.074 257.734 241.877 247.896 242.525C240.521 243.011 234.052 242.768 231.279 242.616C230.369 242.568 229.521 242.134 228.94 241.434L226.201 238.118L249.573 235.074Z" fill="#FCB49A"/>
<path d="M175.874 232.359C165.236 227.985 156.309 219.501 151.488 209.025C148.605 202.722 147.419 195.786 147.057 188.859C146.147 163.743 153.522 138.885 163.402 115.913C169.224 102.841 177.08 88.6393 189.69 81.4266C210.151 69.4738 238.654 73.8948 254.742 91.3928C269.186 107.29 277.938 131.706 282.249 152.534C284.464 163.691 285.789 175.215 285.479 186.648C285.255 198.115 282.597 210.111 275.484 219.11C264.937 233.054 250.769 237.389 233.876 238.247C225.196 238.738 216.311 238.59 207.574 238.114C196.226 237.385 185.826 236.408 175.946 232.397L175.865 232.363L175.874 232.359Z" fill="#FFC3A9"/>
<path d="M191.572 234.76C185.069 232.087 179.614 226.899 176.665 220.496C174.903 216.642 174.178 212.407 173.959 208.172C173.402 192.818 177.913 177.626 183.949 163.586C187.508 155.592 192.31 146.917 200.018 142.506C212.524 135.198 229.945 137.899 239.783 148.599C248.615 158.317 253.961 173.243 256.6 185.972C257.953 192.794 258.763 199.835 258.572 206.824C258.434 213.832 256.809 221.163 252.465 226.666C246.019 235.189 237.358 237.842 227.03 238.361C221.723 238.661 216.292 238.571 210.952 238.28C204.015 237.837 197.66 237.237 191.619 234.784L191.572 234.765V234.76Z" fill="white"/>
<path d="M275.155 216.242C275.155 216.242 298.923 215.328 309.504 193.652C309.504 193.652 315.12 182.161 309.504 179.545C309.504 179.545 302.972 175.887 296.574 189.34C296.574 189.34 284.431 209.582 273.459 209.32L275.155 216.242Z" fill="#FFC3A9"/>
<path d="M187.022 82.8368L189.29 69.8169C189.456 68.8498 190.609 68.4306 191.357 69.0594L200.59 76.7723C201.724 76.4436 202.862 76.1482 204.02 75.9005L190.338 64.467C189.161 63.4856 187.365 64.143 187.103 65.6532L183.621 85.6762C184.712 84.7567 185.841 83.8897 187.017 83.0846C187.017 83.0036 187.013 82.9226 187.027 82.8368H187.022Z" fill="#FFC3A9"/>
<path d="M189.29 69.8122L187.022 82.8321C187.008 82.9179 187.013 82.9989 187.013 83.0799C187.87 82.4939 188.747 81.9365 189.647 81.422C193.096 79.4068 196.779 77.8681 200.59 76.7676L191.357 69.0547C190.605 68.4259 189.456 68.8499 189.29 69.8122Z" fill="#FC8C65"/>
<path d="M241.065 69.0547C241.817 68.4258 242.965 68.8498 243.132 69.8121L245.4 82.8321C245.443 83.075 245.414 83.3037 245.338 83.5085C246.548 84.2994 247.729 85.1378 248.868 86.0287C248.868 86.0239 248.868 86.0192 248.868 86.0144L245.324 65.6532C245.061 64.143 243.265 63.4856 242.089 64.467L228.059 76.1863C229.197 76.4531 230.322 76.7628 231.441 77.0962L241.069 69.0547H241.065Z" fill="#FFC3A9"/>
<path d="M245.4 82.8368L243.132 69.8169C242.965 68.8498 241.812 68.4306 241.064 69.0594L231.437 77.101C236.348 78.5778 241.045 80.7264 245.333 83.5181C245.414 83.3132 245.438 83.0845 245.395 82.8416L245.4 82.8368Z" fill="#FC8C65"/>
<path d="M174.488 98.3149C172.516 96.6046 170.472 94.9753 168.404 93.3794C164.536 90.3972 160.525 87.5007 156.194 85.214C154.227 84.1754 152.102 83.1559 149.877 82.8463C149.201 82.751 148.91 83.7848 149.592 83.8801C151.483 84.1468 153.279 84.9329 154.97 85.7857C157.123 86.8718 159.177 88.1438 161.182 89.4777C164.803 91.8931 168.271 94.5418 171.63 97.3049C172.335 97.8861 173.04 98.4673 173.731 99.0676C174.25 99.5202 175.012 98.7627 174.488 98.3101V98.3149Z" fill="#AD4F36"/>
<path d="M172.868 100.168C170.401 99.3726 167.885 98.7056 165.37 98.0863C160.187 96.8096 154.903 95.7806 149.573 95.3756C146.667 95.1565 143.737 95.1279 140.85 95.5709C140.168 95.6757 140.459 96.7095 141.136 96.6047C146.319 95.8139 151.745 96.4952 156.866 97.386C161.306 98.153 165.703 99.2011 170.034 100.44C170.887 100.683 171.739 100.93 172.583 101.202C173.24 101.416 173.521 100.378 172.868 100.168Z" fill="#AD4F36"/>
<path d="M171.206 102.16C168.138 102.584 165.079 103.079 162.026 103.603C156.094 104.613 150.163 105.737 144.342 107.248C141.612 107.957 138.868 108.739 136.281 109.877C135.652 110.154 136.195 111.078 136.824 110.801C139.054 109.82 141.426 109.134 143.775 108.505C146.7 107.719 149.658 107.057 152.626 106.442C157.819 105.375 163.045 104.47 168.285 103.665C169.353 103.503 170.424 103.341 171.496 103.189C172.178 103.093 171.887 102.06 171.21 102.155L171.206 102.16Z" fill="#AD4F36"/>
<path d="M173.835 103.746C166.98 107.519 160.206 111.449 153.517 115.518C150.711 117.228 147.919 118.967 145.166 120.763C144.589 121.139 145.128 122.068 145.709 121.687C154.308 116.07 163.217 110.911 172.178 105.895C172.906 105.485 173.64 105.075 174.374 104.67C174.979 104.337 174.436 103.412 173.831 103.746H173.835Z" fill="#AD4F36"/>
<path d="M260.606 100.988C262.521 99.3201 264.513 97.7337 266.523 96.1854C270.344 93.2413 274.303 90.3877 278.566 88.12C280.491 87.0958 282.559 86.1049 284.741 85.8C285.422 85.7047 285.131 84.6709 284.455 84.7662C282.521 85.0378 280.667 85.8572 278.933 86.7242C276.761 87.8104 274.689 89.0919 272.669 90.4353C268.977 92.8935 265.437 95.5995 262.012 98.415C261.283 99.0105 260.559 99.6155 259.849 100.23C259.325 100.683 260.087 101.44 260.606 100.988Z" fill="#AD4F36"/>
<path d="M261.75 103.117C264.155 102.341 266.604 101.688 269.058 101.083C274.16 99.8205 279.357 98.7867 284.602 98.3722C287.456 98.1483 290.362 98.0816 293.197 98.5151C293.873 98.62 294.164 97.5862 293.482 97.4814C288.223 96.6763 282.783 97.3146 277.576 98.196C273.031 98.963 268.529 100.025 264.098 101.293C263.217 101.545 262.34 101.798 261.469 102.079C260.816 102.288 261.092 103.327 261.754 103.112L261.75 103.117Z" fill="#AD4F36"/>
<path d="M262.841 105.108C265.885 105.532 268.924 106.023 271.959 106.537C277.842 107.543 283.726 108.653 289.509 110.144C292.215 110.839 294.95 111.592 297.513 112.716C298.137 112.993 298.685 112.068 298.056 111.792C295.779 110.787 293.378 110.072 290.977 109.42C288.08 108.638 285.15 107.976 282.216 107.366C276.966 106.28 271.683 105.365 266.385 104.551C265.304 104.384 264.217 104.222 263.131 104.07C262.455 103.974 262.164 105.008 262.845 105.103L262.841 105.108Z" fill="#AD4F36"/>
<path d="M259.954 106.59C266.809 110.363 273.583 114.293 280.272 118.362C283.078 120.072 285.87 121.811 288.623 123.607C289.204 123.983 289.738 123.059 289.166 122.683C280.567 117.066 271.659 111.907 262.698 106.89C261.969 106.481 261.235 106.071 260.501 105.666C259.896 105.332 259.353 106.257 259.958 106.59H259.954Z" fill="#AD4F36"/>
<path d="M194.802 113.021C201.616 113.021 207.14 107.497 207.14 100.683C207.14 93.8682 201.616 88.344 194.802 88.344C187.987 88.344 182.463 93.8682 182.463 100.683C182.463 107.497 187.987 113.021 194.802 113.021Z" fill="#F7F7F7"/>
<path d="M201.362 103.45C202.977 103.45 204.287 102.141 204.287 100.525C204.287 98.9099 202.977 97.6003 201.362 97.6003C199.746 97.6003 198.437 98.9099 198.437 100.525C198.437 102.141 199.746 103.45 201.362 103.45Z" fill="black"/>
<path d="M202.386 100.525C203.083 100.525 203.648 99.9602 203.648 99.2629C203.648 98.5657 203.083 98.0005 202.386 98.0005C201.689 98.0005 201.123 98.5657 201.123 99.2629C201.123 99.9602 201.689 100.525 202.386 100.525Z" fill="white"/>
<path d="M239.292 113.021C246.107 113.021 251.631 107.497 251.631 100.683C251.631 93.8682 246.107 88.344 239.292 88.344C232.478 88.344 226.954 93.8682 226.954 100.683C226.954 107.497 232.478 113.021 239.292 113.021Z" fill="#F7F7F7"/>
<path d="M232.732 103.45C234.348 103.45 235.657 102.141 235.657 100.525C235.657 98.9099 234.348 97.6003 232.732 97.6003C231.117 97.6003 229.807 98.9099 229.807 100.525C229.807 102.141 231.117 103.45 232.732 103.45Z" fill="black"/>
<path d="M231.708 100.525C232.405 100.525 232.971 99.9602 232.971 99.2629C232.971 98.5657 232.405 98.0005 231.708 98.0005C231.011 98.0005 230.446 98.5657 230.446 99.2629C230.446 99.9602 231.011 100.525 231.708 100.525Z" fill="white"/>
<path d="M222.857 109.958C222.761 109.51 222.071 109.701 222.166 110.149C222.171 110.182 222.175 110.215 222.185 110.249C222.185 110.268 222.185 110.287 222.19 110.306C222.194 110.368 222.199 110.43 222.204 110.492C222.218 110.83 222.204 111.03 222.094 111.349C221.999 111.635 221.799 111.921 221.499 112.107C221.013 112.402 220.413 112.426 219.86 112.388C218.888 112.316 218.002 111.83 217.635 110.939C217.44 110.458 217.402 110.115 217.411 109.625C217.426 108.92 217.411 108.214 217.411 107.509C219.627 107.381 221.366 106.109 221.366 104.551C221.366 104.456 221.356 104.365 221.346 104.275C220.346 103.47 218.421 103.179 216.997 103.179C215.573 103.179 214.162 103.431 212.752 104.275C212.738 104.365 212.733 104.456 212.733 104.551C212.733 106.109 214.477 107.381 216.692 107.509C216.692 107.509 216.692 107.519 216.692 107.524C216.692 108.253 216.683 108.986 216.692 109.715C216.697 110.153 216.683 110.42 216.559 110.83C216.301 111.687 215.625 112.283 214.72 112.473C213.805 112.669 212.557 112.602 212.095 111.702C211.942 111.406 211.895 111.087 211.9 110.749C211.9 110.635 211.909 110.52 211.923 110.406C211.923 110.377 211.933 110.334 211.938 110.311C212.033 109.863 211.347 109.672 211.247 110.12C211.133 110.639 211.156 111.23 211.337 111.735C211.738 112.864 212.843 113.293 213.972 113.274C215.182 113.25 216.382 112.783 216.983 111.678C217.026 111.597 217.059 111.516 217.092 111.435C217.583 112.383 218.488 112.94 219.555 113.083C220.689 113.236 222.071 113.031 222.638 111.907C222.928 111.325 222.995 110.611 222.861 109.982L222.857 109.958Z" fill="#AD4F36"/>
<path d="M190.233 196.148C190.233 196.148 196.059 201.055 199.885 197.043C199.885 197.043 202.5 194.228 197.317 190.431L190.228 196.152L190.233 196.148Z" fill="#AD4F36"/>
<path d="M187.632 158.956C187.78 157.579 187.313 156.207 186.293 155.268C184.392 153.51 180.629 151.609 174.317 154.373C166.78 157.669 167.976 167.054 167.976 167.054C167.976 167.054 170.091 187.816 190.233 196.148L197.322 190.426C197.322 190.426 185.988 174.481 187.637 158.956H187.632Z" fill="#FFC3A9"/>
<path d="M247.367 158.956C247.22 157.579 247.686 156.207 248.706 155.268C250.607 153.51 254.37 151.609 260.683 154.373C268.219 157.669 267.023 167.054 267.023 167.054C267.023 167.054 264.908 187.816 244.766 196.148L237.677 190.426C237.677 190.426 249.011 174.481 247.362 158.956H247.367Z" fill="#FFC3A9"/>
<mask id="mask0_12_3361" style="mask-type:luminance" maskUnits="userSpaceOnUse" x="146" y="74" width="140" height="165">
<path d="M175.874 232.359C165.236 227.985 156.309 219.501 151.488 209.025C148.605 202.722 147.419 195.786 147.057 188.859C146.147 163.743 153.522 138.885 163.402 115.913C169.224 102.841 177.08 88.6393 189.69 81.4266C210.151 69.4738 238.654 73.8948 254.742 91.3928C269.186 107.29 277.938 131.706 282.249 152.534C284.464 163.691 285.789 175.215 285.479 186.648C285.255 198.115 282.597 210.111 275.484 219.11C264.937 233.054 250.769 237.389 233.876 238.247C225.196 238.738 216.311 238.59 207.574 238.114C196.226 237.385 185.826 236.408 175.946 232.397L175.865 232.363L175.874 232.359Z" fill="white"/>
</mask>
<g mask="url(#mask0_12_3361)">
<path d="M170.28 130.624L138.105 123.573C134.913 122.874 131.758 124.895 131.059 128.087L131.058 128.091C130.358 131.283 132.379 134.438 135.571 135.137L167.746 142.188C170.938 142.887 174.092 140.867 174.792 137.675L174.793 137.67C175.492 134.478 173.472 131.323 170.28 130.624Z" fill="#FC8C65"/>
<path d="M160.777 145.653L128.286 138.533C125.181 137.853 122.113 139.818 121.432 142.923L121.431 142.927C120.751 146.032 122.716 149.1 125.821 149.781L158.312 156.901C161.417 157.581 164.485 155.616 165.165 152.511L165.166 152.506C165.847 149.402 163.881 146.333 160.777 145.653Z" fill="#FC8C65"/>
<path d="M265.525 142.172L297.7 135.122C300.892 134.423 302.912 131.268 302.213 128.076L302.212 128.071C301.512 124.879 298.358 122.858 295.166 123.558L262.991 130.608C259.799 131.308 257.778 134.463 258.478 137.655L258.479 137.659C259.178 140.851 262.333 142.872 265.525 142.172Z" fill="#FC8C65"/>
<path d="M274.966 156.891L307.457 149.772C310.562 149.091 312.527 146.023 311.847 142.918L311.846 142.914C311.166 139.809 308.097 137.844 304.993 138.524L272.501 145.644C269.397 146.324 267.431 149.393 268.112 152.497L268.113 152.502C268.793 155.607 271.862 157.572 274.966 156.891Z" fill="#FC8C65"/>
</g>
<path d="M175.522 154.044C174.026 154.449 172.616 155.158 171.482 156.211C167.113 160.27 167.976 167.049 167.976 167.049C167.976 167.049 170.091 187.811 190.233 196.143L192.243 194.518C192.243 194.518 162.292 166.444 178.966 153.301L175.522 154.039V154.044Z" fill="#FCB49A"/>
<path d="M244.771 196.148C244.771 196.148 238.945 201.055 235.119 197.043C235.119 197.043 232.504 194.228 237.687 190.431L244.776 196.152L244.771 196.148Z" fill="#AD4F36"/>
<path d="M259.482 154.044C260.978 154.449 262.388 155.158 263.522 156.211C267.89 160.27 267.028 167.049 267.028 167.049C267.028 167.049 264.913 187.811 244.771 196.143L242.76 194.518C242.76 194.518 272.712 166.444 256.038 153.301L259.482 154.039V154.044Z" fill="#FCB49A"/>
<path d="M220.108 160.947L217.683 151.781C217.988 151.538 218.264 151.233 218.479 150.861L222.857 143.282C224.11 141.11 222.542 138.399 220.036 138.399H211.285C208.779 138.399 207.212 141.114 208.465 143.282L212.843 150.861C213.057 151.233 213.333 151.538 213.638 151.781L211.213 160.947L207.55 175.391C207.097 177.182 207.097 179.055 207.55 180.846L211.213 195.29L214.129 206.314C214.544 207.886 216.778 207.886 217.192 206.314L220.108 195.29L223.771 180.846C224.224 179.055 224.224 177.182 223.771 175.391L220.108 160.947Z" fill="#EC4452"/>
<path d="M247.224 188.559H232.003C228.845 188.559 226.282 191.122 226.282 194.28V201.836H230.007V196.391C230.007 194.114 231.851 192.27 234.128 192.27H245.1C247.377 192.27 249.22 194.114 249.22 196.391V201.836H252.946V194.28C252.946 191.122 250.383 188.559 247.224 188.559Z" fill="#5A6472"/>
<path d="M258.015 196.462H221.208C219.59 196.462 218.278 197.774 218.278 199.392V226.647C218.278 228.265 219.59 229.576 221.208 229.576H258.015C259.633 229.576 260.945 228.265 260.945 226.647V199.392C260.945 197.774 259.633 196.462 258.015 196.462Z" fill="#9D5545"/>
<path d="M222.885 226.647V199.397C222.885 197.777 224.196 196.467 225.815 196.467H221.213C219.594 196.467 218.283 197.777 218.283 199.397V226.647C218.283 228.267 219.594 229.577 221.213 229.577H225.815C224.196 229.577 222.885 228.267 222.885 226.647Z" fill="#90483D"/>
<path d="M221.227 196.462H257.996C259.625 196.462 260.945 197.782 260.945 199.411V210.159H218.278V199.411C218.278 197.782 219.598 196.462 221.227 196.462Z" fill="#B97262"/>
<path d="M225.834 196.462H221.232C219.603 196.462 218.283 197.782 218.283 199.411V210.159H222.885V199.411C222.885 197.782 224.205 196.462 225.834 196.462Z" fill="#A8634F"/>
<path d="M229.445 207.21H227.325C226.483 207.21 225.801 207.892 225.801 208.734V212.545C225.801 213.387 226.483 214.07 227.325 214.07H229.445C230.287 214.07 230.97 213.387 230.97 212.545V208.734C230.97 207.892 230.287 207.21 229.445 207.21Z" fill="#E4E9F7"/>
<path d="M227.53 212.545V208.734C227.53 207.891 228.212 207.21 229.055 207.21H227.33C226.487 207.21 225.806 207.891 225.806 208.734V212.545C225.806 213.389 226.487 214.07 227.33 214.07H229.055C228.212 214.07 227.53 213.389 227.53 212.545Z" fill="#D9DCE3"/>
<path d="M251.898 207.21H249.778C248.936 207.21 248.253 207.892 248.253 208.734V212.545C248.253 213.387 248.936 214.07 249.778 214.07H251.898C252.74 214.07 253.422 213.387 253.422 212.545V208.734C253.422 207.892 252.74 207.21 251.898 207.21Z" fill="#E4E9F7"/>
<path d="M249.978 212.545V208.734C249.978 207.891 250.659 207.21 251.502 207.21H249.778C248.935 207.21 248.253 207.891 248.253 208.734V212.545C248.253 213.389 248.935 214.07 249.778 214.07H251.502C250.659 214.07 249.978 213.389 249.978 212.545Z" fill="#D9DCE3"/>
</g>
<mask id="path-46-inside-1_12_3361" fill="white">
<path d="M154 0C161.732 0 168 6.26801 168 14V54C168 61.732 161.732 68 154 68H142.309L145.221 76.0693C145.844 77.7969 144.004 79.3802 142.389 78.5068L122.95 68H14C6.26801 68 9.66449e-08 61.732 0 54V14C6.443e-07 6.26801 6.26801 2.2549e-07 14 0H154Z"/>
</mask>
<path d="M154 0C161.732 0 168 6.26801 168 14V54C168 61.732 161.732 68 154 68H142.309L145.221 76.0693C145.844 77.7969 144.004 79.3802 142.389 78.5068L122.95 68H14C6.26801 68 9.66449e-08 61.732 0 54V14C6.443e-07 6.26801 6.26801 2.2549e-07 14 0H154Z" fill="#FFEFE7"/>
<path d="M168 14L169 14L168 14ZM168 54L169 54V54H168ZM154 68L154 69H154L154 68ZM142.309 68V67H140.885L141.368 68.3395L142.309 68ZM145.221 76.0693L146.161 75.73L146.161 75.7299L145.221 76.0693ZM142.389 78.5068L142.864 77.6271L142.864 77.6271L142.389 78.5068ZM122.95 68L123.426 67.1203L123.203 67H122.95V68ZM0 54L-1 54L0 54ZM0 14L-1 14V14H0ZM14 0L14 -1L14 -1L14 0ZM154 0V1C161.18 1 167 6.8203 167 14L168 14L169 14C169 5.71573 162.284 -1 154 -1V0ZM168 14H167V54H168H169V14H168ZM168 54L167 54C167 61.1797 161.18 67 154 67L154 68L154 69C162.284 69 169 62.2843 169 54L168 54ZM154 68V67H142.309V68V69H154V68ZM142.309 68L141.368 68.3395L144.28 76.4088L145.221 76.0693L146.161 75.7299L143.249 67.6605L142.309 68ZM145.221 76.0693L144.28 76.4086C144.592 77.2723 143.672 78.0639 142.864 77.6271L142.389 78.5068L141.913 79.3865C144.337 80.6965 147.096 78.3216 146.161 75.73L145.221 76.0693ZM142.389 78.5068L142.864 77.6271L123.426 67.1203L122.95 68L122.475 68.8797L141.913 79.3866L142.389 78.5068ZM122.95 68V67H14V68V69H122.95V68ZM14 68V67C6.8203 67 1 61.1797 1 54L0 54L-1 54C-1 62.2843 5.71573 69 14 69V68ZM0 54H1V14H0H-1V54H0ZM0 14L1 14C1 6.8203 6.8203 1 14 1L14 0L14 -1C5.71573 -1 -0.999999 5.71573 -1 14L0 14ZM14 0V1H154V0V-1H14V0Z" fill="#FF600F" mask="url(#path-46-inside-1_12_3361)"/>
<path d="M26.4688 20.4492V31.043H25.2266V25.6406H24.0312V30.5039H22.8359V20.6484H24.0312V24.5977H25.2266V20.4492H26.4688ZM17.6797 28.5703V21.7031H21.6406V22.7578H18.9922V27.4688C20.1406 27.457 21.0898 27.3984 22.168 27.1992L22.2617 28.2656C20.9785 28.5234 19.8711 28.5586 18.3945 28.5703H17.6797ZM36.5469 20.4492V31.0547H35.2578V20.4492H36.5469ZM28.2969 22.4297V21.375H33.2891V25.3477H29.6445V27.4805C31.3145 27.4688 32.75 27.3809 34.4023 27.1055L34.5195 28.1719C32.7207 28.4824 31.1387 28.5527 29.2344 28.5469H28.3086V24.3164H31.9648V22.4297H28.2969ZM46.8945 20.4492V26.4141H45.6055V20.4492H46.8945ZM38.7148 25.8047V21.0703H40.0273V24.7031C41.6855 24.6914 43.1094 24.5684 44.6094 24.2461L44.7734 25.3242C43.0859 25.6699 41.4922 25.793 39.6172 25.8047H38.7148ZM39.8984 30.9023V26.8711H46.8945V30.9023H39.8984ZM41.1758 29.8711H45.6289V27.8906H41.1758V29.8711ZM49.2383 26.332C49.6309 25.9043 50.1172 25.6816 50.6562 25.6875C51.5938 25.6816 52.4082 26.3496 53.3398 26.3438C53.873 26.3496 54.3535 26.1211 54.7227 25.6758V26.9531C54.3301 27.3809 53.8438 27.6035 53.3047 27.5977C52.3672 27.6035 51.5469 26.9355 50.6211 26.9414C50.0879 26.9355 49.6133 27.1641 49.2383 27.6094V26.332ZM18.8633 46H17.2344L20.2227 37.5156H22.0977L25.0977 46H23.4688L22.7598 43.9023H19.5664L18.8633 46ZM19.9766 42.6719H22.3496L21.1953 39.25H21.125L19.9766 42.6719ZM30.5938 39.8477C30.5176 39.1152 29.9023 38.6934 28.9883 38.6992C28.0215 38.6934 27.4473 39.1621 27.4414 39.8008C27.4355 40.5156 28.1914 40.8086 28.8945 40.9727L29.6914 41.1836C30.957 41.4766 32.1758 42.1445 32.1758 43.6211C32.1758 45.1094 30.998 46.1289 28.9648 46.1289C26.9902 46.1289 25.7363 45.1797 25.6719 43.5039H27.1719C27.2422 44.3887 27.9863 44.8223 28.9531 44.8281C29.9551 44.8223 30.6465 44.3359 30.6523 43.6094C30.6465 42.9414 30.0371 42.6602 29.1172 42.4258L28.1562 42.1797C26.7617 41.8164 25.8945 41.1133 25.8945 39.8945C25.8945 38.3945 27.2246 37.3984 29.0117 37.3984C30.8105 37.3984 32.0352 38.4121 32.0586 39.8477H30.5938ZM34.3906 46H32.7617L35.75 37.5156H37.625L40.625 46H38.9961L38.2871 43.9023H35.0938L34.3906 46ZM35.5039 42.6719H37.877L36.7227 39.25H36.6523L35.5039 42.6719ZM41.6328 46V37.5156H44.8203C46.7656 37.5156 47.8027 38.6992 47.8086 40.3281C47.8027 41.9512 46.7539 43.1289 44.7969 43.1289H43.1562V46H41.6328ZM43.1562 41.875H44.5859C45.7344 41.8691 46.25 41.2246 46.25 40.3281C46.25 39.4199 45.7344 38.793 44.5859 38.793H43.1562V41.875ZM53.4219 37.0469C55.6543 37.0469 57.377 38.2363 57.3711 40.0352C57.377 41.8574 55.6543 43.0469 53.4219 43.0469C51.2012 43.0469 49.4902 41.8574 49.4961 40.0352C49.4902 38.2363 51.2012 37.0469 53.4219 37.0469ZM48.6055 45.707V44.6406H58.2852V45.707H48.6055ZM50.75 40.0352C50.7441 41.2363 51.8809 41.9746 53.4219 41.9805C54.9688 41.9746 56.0938 41.2363 56.0938 40.0352C56.0938 38.8633 54.9688 38.0898 53.4219 38.1016C51.8809 38.0898 50.7441 38.8633 50.75 40.0352ZM68.6562 44.7344V45.8125H58.9766V44.7344H63.1484V43.0117H60.125V39.543H66.2188V38.2305H60.1016V37.1758H67.5078V40.5742H61.4258V41.9453H67.7539V43.0117H64.4375V44.7344H68.6562ZM81.0781 36.4492V47.0547H79.7773V41.6406H77.7266V40.5859H79.7773V36.4492H81.0781ZM72.1719 44.0312C73.8242 43.2812 74.7617 41.4766 74.7617 39.8125V39.2617H72.4883V38.2188H74.7734V36.6719H76.0742V38.2188H78.2891V39.2617H76.0625V39.8125C76.0566 41.4121 77.0176 43.123 78.6875 43.8672L77.9844 44.8633C76.7773 44.3477 75.8926 43.2871 75.4238 42.0215C74.9609 43.3633 74.0879 44.4941 72.875 45.0391L72.1719 44.0312ZM91.3906 36.4492V47.0547H90.1016V36.4492H91.3906ZM83.1406 38.4297V37.375H88.1328V41.3477H84.4883V43.4805C86.1582 43.4688 87.5938 43.3809 89.2461 43.1055L89.3633 44.1719C87.5645 44.4824 85.9824 44.5527 84.0781 44.5469H83.1523V40.3164H86.8086V38.4297H83.1406ZM105.453 42.6133V43.6445H101.234V47.043H99.9453V43.6445H95.7734V42.6133H105.453ZM96.9453 41.5117V36.8711H98.2344V38.1719H102.969V36.8711H104.281V41.5117H96.9453ZM98.2344 40.457H102.969V39.2031H98.2344V40.457ZM111.547 37.1641V38.207H107.891V39.25H111.336V40.2578H107.891V41.3594C109.725 41.3477 110.861 41.2891 112.156 41.0547L112.297 42.0977C110.861 42.3438 109.596 42.3965 107.434 42.3906H106.59V37.1641H111.547ZM107.457 44.3711V43.3281H114.512V47.043H113.211V44.3711H107.457ZM113.211 42.8594V36.4492H114.512V39.1094H115.988V40.2109H114.512V42.8594H113.211ZM125.129 41.418V42.4609H117.699V37.375H125.047V38.4297H118.988V41.418H125.129ZM116.527 45.6953V44.6172H126.207V45.6953H116.527ZM135.77 36.4492V47.0547H134.469V42.707H132.535V41.6406H134.469V39.8242H132.57V38.7578H134.469V36.4492H135.77ZM127.25 38.4062V37.3633H131.973V41.3242H128.574V43.5742C129.975 43.5684 131.188 43.5039 132.617 43.293L132.723 44.3594C131.1 44.6172 129.752 44.6523 128.105 44.6523H127.285V40.3047H130.695V38.4062H127.25ZM146.949 44.6875V45.7539H137.27V44.6875H139.508V42.0098C138.664 41.5234 138.154 40.7617 138.16 39.8242C138.154 38.1367 139.807 37.0234 142.086 37.0234C144.377 37.0234 146.041 38.1367 146.035 39.8242C146.041 40.75 145.543 41.4941 144.723 41.9805V44.6875H146.949ZM139.438 39.8242C139.432 40.9082 140.504 41.5996 142.086 41.5938C143.662 41.5996 144.758 40.9082 144.758 39.8242C144.758 38.7227 143.662 38.0488 142.086 38.0547C140.504 38.0488 139.432 38.7227 139.438 39.8242ZM140.797 44.6875H143.398V42.4785C142.994 42.5664 142.555 42.6133 142.086 42.6133C141.629 42.6133 141.195 42.5664 140.797 42.4844V44.6875ZM149.82 37.5156L149.691 43.5039H148.367L148.227 37.5156H149.82ZM148.121 45.1797C148.115 44.6875 148.531 44.2832 149.035 44.2773C149.521 44.2832 149.938 44.6875 149.938 45.1797C149.938 45.6836 149.521 46.0938 149.035 46.0938C148.531 46.0938 148.115 45.6836 148.121 45.1797Z" fill="#161616"/>
<defs>
<clipPath id="clip0_12_3361">
<rect width="176" height="178.816" fill="white" transform="translate(136 64)"/>
</clipPath>
</defs>
</svg>
