<svg width="24" height="24" viewBox="0 0 24 24" fill="none" xmlns="http://www.w3.org/2000/svg">
<path d="M12.0009 24.0017C18.6287 24.0017 24.0017 18.6287 24.0017 12.0009C24.0017 5.37297 18.6287 0 12.0009 0C5.37297 0 0 5.37297 0 12.0009C0 18.6287 5.37297 24.0017 12.0009 24.0017Z" fill="#FFC84D"/>
<path d="M8.87541 11.1219C9.6705 11.1219 10.315 10.4774 10.315 9.6823C10.315 8.88722 9.6705 8.24268 8.87541 8.24268C8.08033 8.24268 7.43579 8.88722 7.43579 9.6823C7.43579 10.4774 8.08033 11.1219 8.87541 11.1219Z" fill="black"/>
<path d="M14.9109 11.1219C15.706 11.1219 16.3505 10.4774 16.3505 9.6823C16.3505 8.88722 15.706 8.24268 14.9109 8.24268C14.1158 8.24268 13.4713 8.88722 13.4713 9.6823C13.4713 10.4774 14.1158 11.1219 14.9109 11.1219Z" fill="black"/>
<path d="M7.81879 16.2649C7.81879 17.2822 9.467 18.1063 11.5016 18.1063C13.5362 18.1063 15.1845 17.2822 15.1845 16.2649H7.8205H7.81879Z" fill="#FF6D00"/>
<path d="M8.05639 12.9053C7.95039 12.7223 7.68537 12.7223 7.58108 12.9053C6.91598 13.7687 6.04058 15.0647 5.71572 16.3163C5.6935 16.4052 5.66101 16.5744 5.66101 16.8018C5.66101 17.9935 6.62703 18.9613 7.82045 18.9613C9.01386 18.9613 9.97988 17.9953 9.97988 16.8018C9.97988 16.5761 9.9474 16.4052 9.92517 16.3163C9.60031 15.0647 8.7232 13.7687 8.05981 12.9053H8.05639Z" fill="white"/>
</svg>
